<svg xmlns="http://www.w3.org/2000/svg">
<!-- ============================================================
     RümpelRoss Icon-Set · eigene Designsprache
     24x24 · Strich 1.7 · runde Kappen · Akzent: CSS-Variable "ic-a"
     ============================================================ -->

<!-- Offener Karton, Inhalt ragt heraus -->
<symbol id="i-entruempelung" viewBox="0 0 24 24"><g fill="none" stroke="currentColor" stroke-width="1.7" stroke-linecap="round" stroke-linejoin="round">
  <path d="M5 11.5v8.5h14v-8.5"/>
  <path d="M3.5 11.5h17"/>
  <path d="M5 11.5 2.8 8.2 M19 11.5l2.2-3.3"/>
  <path stroke="var(--ic-a,#E09600)" d="M9 11.5V7.8 M12 11.5V5.8 M15 11.5V8.6"/>
</g></symbol>

<!-- Haus mit Tür + Umzugskarton -->
<symbol id="i-haushalt" viewBox="0 0 24 24"><g fill="none" stroke="currentColor" stroke-width="1.7" stroke-linecap="round" stroke-linejoin="round">
  <path d="m3.5 10.8 8.5-7 8.5 7"/>
  <path d="M5.8 9.6V20h12.4V9.6"/>
  <path d="M9 20v-6.2h3.4V20"/>
  <rect stroke="var(--ic-a,#E09600)" x="14.6" y="15.4" width="3.6" height="4.6" rx=".4"/>
</g></symbol>

<!-- Mehrfamilienhaus mit Schlüssel -->
<symbol id="i-wohnung" viewBox="0 0 24 24"><g fill="none" stroke="currentColor" stroke-width="1.7" stroke-linecap="round" stroke-linejoin="round">
  <path d="M4.5 20V4.5h10V20"/>
  <path d="M3 20h13"/>
  <path d="M7.3 7.5h1.3 M10.6 7.5h1.3 M7.3 11h1.3 M10.6 11h1.3 M7.3 14.5h1.3 M10.6 14.5h1.3"/>
  <g stroke="var(--ic-a,#E09600)"><circle cx="18.3" cy="13.2" r="2"/><path d="M18.3 15.2V20 M18.3 18h1.8"/></g>
</g></symbol>

<!-- Sofa mit Herz: einfühlsame Räumung -->
<symbol id="i-messie" viewBox="0 0 24 24"><g fill="none" stroke="currentColor" stroke-width="1.7" stroke-linecap="round" stroke-linejoin="round">
  <path d="M5.5 13.5v-1a2 2 0 1 0-3 1.7V19h19v-4.8a2 2 0 1 0-3-1.7v1z"/>
  <path d="M5.5 13.5h13 M5.5 11.5V9h13v2.5"/>
  <path stroke="var(--ic-a,#E09600)" d="M12 6.7c.7-1.7 3.1-1.4 3.1.5 0 1.2-1.7 2.3-3.1 3.3-1.4-1-3.1-2.1-3.1-3.3 0-1.9 2.4-2.2 3.1-.5z"/>
</g></symbol>

<!-- Farbroller -->
<symbol id="i-innenausbau" viewBox="0 0 24 24"><g fill="none" stroke="currentColor" stroke-width="1.7" stroke-linecap="round" stroke-linejoin="round">
  <rect x="4.5" y="3.5" width="11.5" height="4.6" rx="1"/>
  <path d="M16 5.8h2.6a1 1 0 0 1 1 1v2.6a1 1 0 0 1-1 1h-7.1v2.4"/>
  <path stroke="var(--ic-a,#E09600)" d="M11.5 12.8V20 M9.8 20h3.4"/>
</g></symbol>

<!-- Bodenplanken -->
<symbol id="i-boden" viewBox="0 0 24 24"><g fill="none" stroke="currentColor" stroke-width="1.7" stroke-linecap="round" stroke-linejoin="round">
  <rect x="3.5" y="6" width="17" height="12"/>
  <path d="M3.5 10h17 M3.5 14h17"/>
  <path stroke="var(--ic-a,#E09600)" d="M10 6v4 M15 10v4 M9 14v4"/>
</g></symbol>

<!-- Wohnungstür -->
<symbol id="i-tuer" viewBox="0 0 24 24"><g fill="none" stroke="currentColor" stroke-width="1.7" stroke-linecap="round" stroke-linejoin="round">
  <path d="M6 20.5V3.5h12v17"/>
  <path d="M4 20.5h16"/>
  <path d="M8.5 20.5V6h7v14.5"/>
  <circle stroke="var(--ic-a,#E09600)" fill="var(--ic-a,#E09600)" cx="13.7" cy="13" r=".8"/>
</g></symbol>

<!-- Haus -->
<symbol id="i-haus" viewBox="0 0 24 24"><g fill="none" stroke="currentColor" stroke-width="1.7" stroke-linecap="round" stroke-linejoin="round">
  <path d="m3.5 11.5 8.5-7.5 8.5 7.5"/>
  <path d="M5.8 10V20h12.4V10"/>
  <path d="M10.3 20v-5.2h3.4V20"/>
  <path stroke="var(--ic-a,#E09600)" d="M16.2 7.3V4.8h2.2v4.4"/>
</g></symbol>

<!-- Kellertreppe abwärts -->
<symbol id="i-keller" viewBox="0 0 24 24"><g fill="none" stroke="currentColor" stroke-width="1.7" stroke-linecap="round" stroke-linejoin="round">
  <path d="M3.5 5.5v3.8h3.8v3.8h3.8v3.8h3.8v3.6h5.6"/>
  <g stroke="var(--ic-a,#E09600)"><path d="m8.5 7.5 7 7"/><path d="M15.5 14.5v-3 M15.5 14.5h-3"/></g>
</g></symbol>

<!-- Dachboden mit Leiter -->
<symbol id="i-dachboden" viewBox="0 0 24 24"><g fill="none" stroke="currentColor" stroke-width="1.7" stroke-linecap="round" stroke-linejoin="round">
  <path d="M2.8 12.5 12 4l9.2 8.5"/>
  <path d="M5.3 12.5h13.4"/>
  <g stroke="var(--ic-a,#E09600)"><path d="M10 20.5v-8 M14 20.5v-8"/><path d="M10 15.5h4 M10 18.5h4"/></g>
</g></symbol>

<!-- Garagentor -->
<symbol id="i-garage" viewBox="0 0 24 24"><g fill="none" stroke="currentColor" stroke-width="1.7" stroke-linecap="round" stroke-linejoin="round">
  <path d="M3.5 20V9.3L12 4l8.5 5.3V20"/>
  <path d="M6.5 20v-8.5h11V20"/>
  <path stroke="var(--ic-a,#E09600)" d="M6.5 14.3h11 M6.5 17.1h11"/>
</g></symbol>

<!-- Bürogebäude -->
<symbol id="i-gewerbe" viewBox="0 0 24 24"><g fill="none" stroke="currentColor" stroke-width="1.7" stroke-linecap="round" stroke-linejoin="round">
  <path d="M4 20V8h6.5v12"/>
  <path d="M10.5 20V3.5H20V20"/>
  <path d="M2.5 20h19"/>
  <path d="M13.3 7h1.2 M16.5 7h1.2 M13.3 10.5h1.2 M16.5 10.5h1.2 M13.3 14h1.2 M16.5 14h1.2 M6.3 11h1.8 M6.3 14.5h1.8"/>
  <path stroke="var(--ic-a,#E09600)" d="M14.8 20v-3.4h2.4V20"/>
</g></symbol>

<!-- Überquellende Kartons -->
<symbol id="i-messiewohnung" viewBox="0 0 24 24"><g fill="none" stroke="currentColor" stroke-width="1.7" stroke-linecap="round" stroke-linejoin="round">
  <rect x="3.5" y="13" width="7.6" height="7"/>
  <rect x="12.9" y="13" width="7.6" height="7"/>
  <rect x="8.2" y="5.5" width="7.6" height="7"/>
  <path stroke="var(--ic-a,#E09600)" d="M9.5 5.5C8.7 4.3 7.5 3.7 6.2 3.7 M14.5 5.5c.8-1.2 2-1.8 3.3-1.8"/>
</g></symbol>

<!-- Fragezeichen -->
<symbol id="i-frage" viewBox="0 0 24 24"><g fill="none" stroke="currentColor" stroke-width="1.7" stroke-linecap="round" stroke-linejoin="round">
  <circle cx="12" cy="12" r="8.5"/>
  <path d="M9.6 9.7a2.4 2.4 0 1 1 3.3 2.2c-.8.3-.9.9-.9 1.6v.4"/>
  <circle stroke="var(--ic-a,#E09600)" fill="var(--ic-a,#E09600)" cx="12" cy="16.8" r=".8"/>
</g></symbol>

<!-- Zollstock / Maß -->
<symbol id="i-masz" viewBox="0 0 24 24"><g fill="none" stroke="currentColor" stroke-width="1.7" stroke-linecap="round" stroke-linejoin="round">
  <path d="M3.5 16.2 16.2 3.5l4.3 4.3L7.8 20.5z"/>
  <path stroke="var(--ic-a,#E09600)" d="m8.3 11.4 1.8 1.8 M11.3 8.4l1.8 1.8 M14.3 5.4l1.8 1.8"/>
</g></symbol>

<!-- Füllgrad 1/4 -->
<symbol id="i-fuell-1" viewBox="0 0 24 24"><g fill="none" stroke="currentColor" stroke-width="1.7" stroke-linecap="round" stroke-linejoin="round">
  <rect x="4.5" y="4.5" width="15" height="15" rx="1.5"/>
  <rect fill="var(--ic-a,#E09600)" opacity=".25" stroke="none" x="4.5" y="15.6" width="15" height="3.9"/>
  <path stroke="var(--ic-a,#E09600)" d="M4.5 15.6h15"/>
</g></symbol>

<!-- Füllgrad 1/2 -->
<symbol id="i-fuell-2" viewBox="0 0 24 24"><g fill="none" stroke="currentColor" stroke-width="1.7" stroke-linecap="round" stroke-linejoin="round">
  <rect x="4.5" y="4.5" width="15" height="15" rx="1.5"/>
  <rect fill="var(--ic-a,#E09600)" opacity=".25" stroke="none" x="4.5" y="12" width="15" height="7.5"/>
  <path stroke="var(--ic-a,#E09600)" d="M4.5 12h15"/>
</g></symbol>

<!-- Füllgrad 3/4 -->
<symbol id="i-fuell-3" viewBox="0 0 24 24"><g fill="none" stroke="currentColor" stroke-width="1.7" stroke-linecap="round" stroke-linejoin="round">
  <rect x="4.5" y="4.5" width="15" height="15" rx="1.5"/>
  <rect fill="var(--ic-a,#E09600)" opacity=".25" stroke="none" x="4.5" y="8.4" width="15" height="11.1"/>
  <path stroke="var(--ic-a,#E09600)" d="M4.5 8.4h15"/>
</g></symbol>

<!-- Füllgrad voll -->
<symbol id="i-fuell-4" viewBox="0 0 24 24"><g fill="none" stroke="currentColor" stroke-width="1.7" stroke-linecap="round" stroke-linejoin="round">
  <rect x="4.5" y="4.5" width="15" height="15" rx="1.5"/>
  <rect fill="var(--ic-a,#E09600)" opacity=".35" stroke="none" x="4.5" y="4.5" width="15" height="15" rx="1.5"/>
  <path stroke="var(--ic-a,#E09600)" d="M8 4.5 4.5 8 M13 4.5l-6 6 M18 4.5l-7.5 7.5"/>
</g></symbol>

<!-- Erdgeschoss: ebenerdiger Zugang -->
<symbol id="i-erdgeschoss" viewBox="0 0 24 24"><g fill="none" stroke="currentColor" stroke-width="1.7" stroke-linecap="round" stroke-linejoin="round">
  <path d="M10 20V4h10v16"/>
  <path d="M2.5 20h19"/>
  <g stroke="var(--ic-a,#E09600)"><path d="M2.5 12h5.5"/><path d="m6 9.8 2.2 2.2L6 14.2"/></g>
</g></symbol>

<!-- Aufzug -->
<symbol id="i-aufzug" viewBox="0 0 24 24"><g fill="none" stroke="currentColor" stroke-width="1.7" stroke-linecap="round" stroke-linejoin="round">
  <rect x="4.5" y="3.5" width="15" height="17"/>
  <path d="M12 3.5v17"/>
  <g stroke="var(--ic-a,#E09600)"><path d="M8.2 14v-4 M8.2 10 6.8 11.4 M8.2 10l1.4 1.4"/><path d="M15.8 10v4 M15.8 14l-1.4-1.4 M15.8 14l1.4-1.4"/></g>
</g></symbol>

<!-- Treppe aufwärts -->
<symbol id="i-treppe" viewBox="0 0 24 24"><g fill="none" stroke="currentColor" stroke-width="1.7" stroke-linecap="round" stroke-linejoin="round">
  <path d="M3 20.5h4.4v-4.2h4.4v-4.2h4.4V7.9H21"/>
  <g stroke="var(--ic-a,#E09600)"><path d="m6.5 13.5 7-7"/><path d="M13.5 9.5v-3 M13.5 6.5h-3"/></g>
</g></symbol>

<!-- Blitz: so schnell wie möglich -->
<symbol id="i-blitz" viewBox="0 0 24 24"><g fill="none" stroke="currentColor" stroke-width="1.7" stroke-linecap="round" stroke-linejoin="round">
  <path d="M13.2 3 6 13.4h4.6L10.8 21 18 10.6h-4.6z"/>
  <path stroke="var(--ic-a,#E09600)" d="M3 8.5h2.6 M2.2 12.5h2.6"/>
</g></symbol>

<!-- Kalender mit Haken -->
<symbol id="i-kalender-check" viewBox="0 0 24 24"><g fill="none" stroke="currentColor" stroke-width="1.7" stroke-linecap="round" stroke-linejoin="round">
  <rect x="4" y="5.5" width="16" height="14.5" rx="1.5"/>
  <path d="M4 10h16 M8.5 3.5v3.5 M15.5 3.5v3.5"/>
  <path stroke="var(--ic-a,#E09600)" d="m9 14.8 2.1 2.1 3.9-4.3"/>
</g></symbol>

<!-- Kalender mit Punkten (später) -->
<symbol id="i-kalender-dots" viewBox="0 0 24 24"><g fill="none" stroke="currentColor" stroke-width="1.7" stroke-linecap="round" stroke-linejoin="round">
  <rect x="4" y="5.5" width="16" height="14.5" rx="1.5"/>
  <path d="M4 10h16 M8.5 3.5v3.5 M15.5 3.5v3.5"/>
  <g stroke="var(--ic-a,#E09600)" fill="var(--ic-a,#E09600)"><circle cx="8.5" cy="14" r=".8"/><circle cx="12" cy="14" r=".8"/><circle cx="15.5" cy="14" r=".8"/></g>
</g></symbol>

<!-- Gedankenblase: noch in Planung -->
<symbol id="i-planung" viewBox="0 0 24 24"><g fill="none" stroke="currentColor" stroke-width="1.7" stroke-linecap="round" stroke-linejoin="round">
  <path d="M12 4.5c-4.6 0-8.3 2.8-8.3 6.3 0 2 1.3 3.8 3.2 5-.2 1-.8 2-1.7 2.8 1.6.2 3.1-.3 4.2-1.2.8.2 1.7.3 2.6.3 4.6 0 8.3-2.8 8.3-6.3S16.6 4.5 12 4.5z"/>
  <g stroke="var(--ic-a,#E09600)" fill="var(--ic-a,#E09600)"><circle cx="9.2" cy="10.8" r=".8"/><circle cx="12" cy="10.8" r=".8"/><circle cx="14.8" cy="10.8" r=".8"/></g>
</g></symbol>

<!-- Diamant: Wertgegenstände -->
<symbol id="i-wert" viewBox="0 0 24 24"><g fill="none" stroke="currentColor" stroke-width="1.7" stroke-linecap="round" stroke-linejoin="round">
  <path d="M8 4.5h8l3.5 4.7L12 20 4.5 9.2z"/>
  <path d="M4.5 9.2h15"/>
  <path stroke="var(--ic-a,#E09600)" d="M9.7 9.2 12 20l2.3-10.8 M9.7 9.2 12 4.5l2.3 4.7"/>
</g></symbol>

<!-- Dokument mit Herz: Erbfall / Nachlass -->
<symbol id="i-nachlass" viewBox="0 0 24 24"><g fill="none" stroke="currentColor" stroke-width="1.7" stroke-linecap="round" stroke-linejoin="round">
  <path d="M6 20.5v-17h8.3L19 8.2v12.3z"/>
  <path d="M14 3.5v5h5"/>
  <path stroke="var(--ic-a,#E09600)" d="M12.5 12.4c.6-1.3 2.5-1.1 2.5.4 0 1-1.5 2-2.5 2.8-1-.8-2.5-1.8-2.5-2.8 0-1.5 1.9-1.7 2.5-.4z"/>
</g></symbol>

<!-- Besen: besenrein -->
<symbol id="i-besen" viewBox="0 0 24 24"><g fill="none" stroke="currentColor" stroke-width="1.7" stroke-linecap="round" stroke-linejoin="round">
  <path d="M19.5 3.5 12.2 11"/>
  <path d="M12.2 11 6.3 15.2c-1.7 1.2-2.4 3.3-1.8 5.1 2.9.7 6.2-.2 8.4-2.5l2.4-3z"/>
  <path stroke="var(--ic-a,#E09600)" d="m7.2 16.8-1.6 2.1 M10.2 18.2l-1.2 1.9"/>
</g></symbol>

<!-- Videodokumentation -->
<symbol id="i-video" viewBox="0 0 24 24"><g fill="none" stroke="currentColor" stroke-width="1.7" stroke-linecap="round" stroke-linejoin="round">
  <rect x="3" y="6.5" width="12.5" height="11" rx="2"/>
  <path d="m15.5 10.5 5.5-3v9l-5.5-3"/>
  <circle stroke="var(--ic-a,#E09600)" fill="var(--ic-a,#E09600)" cx="6.6" cy="10" r=".9"/>
</g></symbol>

<!-- Schild mit Haken: Beweissicherung -->
<symbol id="i-schild" viewBox="0 0 24 24"><g fill="none" stroke="currentColor" stroke-width="1.7" stroke-linecap="round" stroke-linejoin="round">
  <path d="M12 3.5 19 6v6.2c0 4.8-3.4 7.3-7 8.8-3.6-1.5-7-4-7-8.8V6z"/>
  <path stroke="var(--ic-a,#E09600)" d="m9 11.7 2.1 2.1 3.9-4.3"/>
</g></symbol>

<!-- Werkzeug: Instandsetzung -->
<symbol id="i-werkzeug" viewBox="0 0 24 24"><g fill="none" stroke="currentColor" stroke-width="1.7" stroke-linecap="round" stroke-linejoin="round">
  <path d="M14.7 6.3a1 1 0 0 0 0 1.4l1.6 1.6a1 1 0 0 0 1.4 0l3.77-3.77a6 6 0 0 1-7.94 7.94l-6.91 6.91a2.12 2.12 0 0 1-3-3l6.91-6.91a6 6 0 0 1 7.94-7.94l-3.76 3.76z"/>
</g></symbol>

<!-- Schlüsselübergabe -->
<symbol id="i-schluessel" viewBox="0 0 24 24"><g fill="none" stroke="currentColor" stroke-width="1.7" stroke-linecap="round" stroke-linejoin="round">
  <circle cx="8" cy="15.5" r="4.5"/>
  <path d="m11.2 12.3 8.3-8.3"/>
  <path stroke="var(--ic-a,#E09600)" d="M15.5 8l2.5 2.5 M18 5.5 20.5 8"/>
</g></symbol>
</svg>
