<svg xmlns="http://www.w3.org/2000/svg" viewBox="0 0 3141 486"><path fill="currentColor" fill-rule="evenodd" d="M455.0,452.5C454.2,452.3 449.4,451.7 444.5,451.1C430.3,449.3 414.0,443.7 405.9,437.8C403.8,436.3 401.7,435.0 401.2,435.0C400.8,435.0 397.4,431.8 393.6,427.9C388.7,422.6 385.7,418.3 382.5,411.5C380.0,406.4 378.0,401.2 378.0,400.1C378.0,399.0 377.2,396.1 376.2,393.8C374.6,389.8 374.5,380.8 374.5,254.2C374.5,135.0 374.7,118.8 376.0,118.0C378.4,116.4 414.5,116.7 415.8,118.3C416.6,119.2 417.0,156.7 417.3,245.6C417.7,383.2 417.4,376.8 423.6,389.3C428.2,398.9 436.6,405.7 448.0,409.1C454.1,411.0 480.8,411.0 487.0,409.2C506.7,403.3 516.7,390.5 519.6,367.5C520.8,358.6 521.0,333.6 520.9,238.2C520.9,147.1 521.1,119.6 522.0,118.5C523.7,116.5 558.7,116.3 561.4,118.3C563.0,119.5 563.1,127.1 563.0,250.0C562.9,400.8 563.3,394.0 553.8,412.2C545.3,428.5 525.5,442.5 502.5,448.3C488.1,451.9 463.3,454.1 455.0,452.5ZM2406.0,451.1C2382.9,447.8 2375.7,444.7 2364.0,433.0C2357.5,426.5 2349.0,414.6 2349.0,412.0C2349.0,411.5 2348.4,409.9 2347.6,408.3C2346.3,405.7 2345.3,403.3 2342.0,394.0C2341.4,392.1 2340.4,388.6 2339.9,386.2C2339.4,383.9 2338.6,381.1 2338.0,380.1C2337.5,379.0 2337.0,377.1 2337.0,375.8C2337.0,374.5 2336.4,370.6 2335.6,367.0C2329.1,338.2 2326.1,278.8 2329.4,244.1C2331.2,225.1 2333.7,207.3 2335.2,201.5C2335.8,199.3 2336.7,195.5 2337.1,193.0C2338.9,182.6 2343.3,169.5 2349.3,157.0C2356.5,142.2 2368.0,129.6 2379.8,123.7C2383.9,121.7 2387.9,120.0 2388.8,120.0C2389.7,120.0 2392.5,119.4 2395.0,118.6C2401.8,116.4 2422.2,114.0 2433.5,114.0C2445.4,114.0 2468.2,116.6 2472.8,118.6C2474.6,119.4 2477.0,120.0 2478.1,120.0C2481.4,120.0 2491.9,125.9 2498.3,131.4C2504.1,136.3 2511.3,144.9 2514.3,150.5C2518.7,158.8 2522.3,166.8 2523.6,170.9C2527.7,183.8 2530.8,196.0 2532.0,204.5C2532.5,207.8 2533.4,212.1 2534.0,214.0C2534.5,215.9 2535.0,219.8 2535.0,222.6C2535.0,225.4 2535.7,231.7 2536.6,236.6C2538.8,249.0 2538.8,315.5 2536.6,331.0C2535.7,336.8 2535.0,343.3 2535.0,345.5C2535.0,347.7 2534.4,352.4 2533.6,356.0C2532.8,359.6 2531.7,365.2 2531.0,368.5C2524.7,400.5 2516.0,420.1 2501.8,434.2C2488.8,447.2 2472.5,451.8 2437.5,452.5C2423.0,452.8 2415.6,452.4 2406.0,451.1ZM2713.5,452.3C2711.3,452.1 2703.4,451.3 2696.0,450.5C2688.6,449.7 2680.2,448.4 2677.5,447.7L2672.5,446.3L2672.8,430.4C2673.2,413.1 2673.4,411.4 2675.5,410.7C2676.2,410.4 2681.5,410.8 2687.2,411.7C2693.3,412.6 2707.3,413.4 2721.6,413.7C2742.0,414.1 2746.3,413.9 2749.5,412.6C2751.5,411.7 2754.0,411.0 2754.9,411.0C2756.7,411.0 2766.8,404.5 2768.8,402.1C2772.0,398.2 2774.7,393.0 2776.5,387.5C2778.2,382.5 2778.5,378.9 2778.4,365.5C2778.4,351.6 2778.1,348.7 2776.1,343.0C2770.3,326.3 2764.3,320.0 2726.4,290.8C2690.1,262.9 2677.0,237.7 2677.0,196.0C2677.0,186.2 2679.3,167.1 2681.1,162.0C2683.7,154.2 2689.2,144.2 2693.7,138.6C2710.7,117.6 2740.5,110.9 2797.0,115.6C2808.8,116.6 2816.8,117.7 2817.3,118.4C2818.2,119.7 2817.2,138.7 2815.9,144.5C2815.4,146.7 2815.0,149.9 2815.0,151.7C2815.0,155.6 2812.6,156.6 2807.3,154.9C2805.0,154.2 2793.0,153.6 2777.2,153.3C2755.2,152.8 2750.2,153.0 2746.7,154.3C2744.4,155.1 2741.3,156.1 2739.9,156.4C2733.8,157.7 2726.5,166.8 2722.9,177.5C2721.0,183.3 2720.7,205.8 2722.5,211.8C2723.3,214.4 2724.0,217.3 2724.0,218.2C2724.0,219.2 2725.4,222.9 2727.1,226.5C2730.4,233.6 2741.4,245.5 2753.0,254.7C2780.1,276.1 2786.6,281.5 2794.5,289.5C2813.6,308.5 2820.9,325.2 2823.0,354.5C2825.0,380.9 2821.8,401.5 2813.8,415.3C2801.7,436.0 2785.8,446.2 2758.5,450.6C2749.5,452.1 2721.1,453.2 2713.5,452.3ZM2976.5,451.0C2958.5,449.0 2949.0,447.2 2948.4,445.6C2948.2,445.0 2948.3,437.1 2948.8,428.2C2949.4,415.7 2949.9,411.6 2951.0,410.9C2952.6,409.9 2956.6,410.3 2970.6,412.7C2981.9,414.6 3022.3,414.1 3028.0,412.0C3038.7,408.1 3045.7,402.7 3049.1,395.8C3054.2,385.4 3054.4,384.5 3054.4,366.6C3054.4,351.2 3054.2,348.8 3052.0,342.6C3046.9,327.8 3038.6,318.5 3014.0,300.0C2998.4,288.3 2983.8,275.6 2977.3,268.0C2970.6,260.3 2961.0,245.1 2961.0,242.4C2961.0,241.6 2960.4,239.9 2959.8,238.7C2956.5,232.8 2953.1,211.6 2953.1,196.0C2953.0,185.7 2955.1,167.7 2957.1,162.0C2963.4,143.3 2976.1,128.6 2991.5,122.2C3003.7,117.1 3022.8,113.9 3041.0,114.0C3057.8,114.0 3092.3,116.9 3093.3,118.4C3094.1,119.7 3093.5,132.6 3091.9,145.0C3090.4,156.9 3090.7,156.4 3085.7,155.5C3072.8,153.4 3067.6,153.0 3048.0,153.0C3030.8,153.0 3025.5,153.3 3021.5,154.6C3004.0,160.3 2998.6,168.8 2997.3,192.7C2996.6,205.8 2998.4,215.6 3003.2,226.0C3008.5,237.3 3015.4,244.1 3045.1,267.5C3075.3,291.2 3087.7,306.0 3093.9,326.0C3098.5,340.9 3099.2,346.4 3099.3,366.8C3099.4,386.9 3098.2,395.7 3094.4,404.8C3093.6,406.6 3093.0,408.5 3093.0,408.9C3093.0,409.4 3091.2,413.0 3088.9,416.9C3084.6,424.4 3076.4,433.2 3069.5,437.9C3064.8,441.1 3052.6,447.0 3050.7,447.0C3050.1,447.0 3047.5,447.6 3045.0,448.4C3030.9,453.0 3004.1,454.0 2976.5,451.0ZM46.7,448.2C45.1,446.5 45.0,433.6 45.0,283.3C45.0,125.4 45.1,120.3 46.9,118.6C48.6,117.1 52.7,117.0 97.1,117.3C151.0,117.8 159.3,118.6 174.3,124.8C175.9,125.5 177.3,126.0 177.5,126.0C177.8,126.0 181.2,128.2 185.3,131.0C205.6,144.7 215.9,171.0 216.0,208.4C216.0,248.7 203.9,276.2 177.2,296.3C171.5,300.7 171.0,301.3 171.0,304.9C171.0,307.6 172.9,312.8 177.4,322.2C188.3,345.1 192.7,354.3 196.3,362.2C200.1,370.2 206.6,383.9 215.5,402.5C218.4,408.6 222.2,416.6 224.0,420.5C225.8,424.4 229.2,431.6 231.6,436.6C236.4,446.6 236.8,448.5 234.4,449.4C233.5,449.7 223.3,450.0 211.6,450.0C187.1,450.0 188.3,450.4 183.5,439.5C180.9,433.8 179.3,430.3 171.4,413.2C169.5,409.2 168.0,405.8 168.0,405.5C168.0,405.1 163.4,394.9 159.0,385.5C157.5,382.2 155.0,376.8 153.5,373.5C152.0,370.2 150.0,365.7 149.0,363.5C148.0,361.3 145.9,356.8 144.5,353.5C139.3,341.9 138.2,339.4 133.1,328.7L128.0,318.0L108.8,318.2L89.6,318.5L88.9,321.0C88.5,322.4 88.2,351.4 88.1,385.6C88.0,432.4 87.7,447.9 86.8,448.8C86.0,449.6 80.1,450.0 67.0,450.0C50.2,450.0 48.1,449.8 46.7,448.2ZM724.7,448.2C723.1,446.5 723.0,433.6 723.0,283.2C723.0,136.3 723.2,120.0 724.6,118.6C725.9,117.2 730.2,117.0 756.3,117.0C784.8,117.1 786.6,117.2 788.9,119.0C790.1,120.1 791.6,122.5 792.1,124.2C792.5,126.0 793.6,129.8 794.4,132.5C795.2,135.2 796.8,141.1 798.0,145.5C799.2,149.9 800.8,155.8 801.6,158.5C802.4,161.2 803.5,165.1 804.0,167.0C804.4,168.9 805.3,171.8 805.8,173.5C806.4,175.2 807.5,179.1 808.4,182.3C811.0,191.7 813.1,199.2 814.5,204.0C815.2,206.5 816.5,211.4 817.5,215.0C818.5,218.6 819.8,223.5 820.5,226.0C821.8,230.2 822.9,234.3 826.7,248.0C828.6,254.5 830.5,261.2 832.4,267.8C833.1,270.4 834.5,275.2 835.4,278.5C836.3,281.8 838.2,288.6 839.6,293.5C841.0,298.4 842.8,304.5 843.4,307.0C844.3,310.2 845.2,311.6 846.6,311.8C849.2,312.2 850.6,310.5 851.9,305.5C854.7,294.4 855.3,292.2 856.6,289.2C857.4,287.4 858.0,285.1 858.0,284.1C858.0,283.2 858.6,280.4 859.4,277.9C860.9,272.9 863.1,265.2 865.4,256.5C866.3,253.2 867.7,248.2 868.5,245.5C869.2,242.8 870.6,237.9 871.4,234.8C872.3,231.6 873.7,226.6 874.5,223.8C875.9,218.6 877.7,212.0 880.6,201.2C883.1,191.9 885.1,184.6 886.5,180.0C887.2,177.5 888.5,172.6 889.5,169.0C890.4,165.4 891.8,160.2 892.5,157.5C893.3,154.8 894.6,149.8 895.5,146.5C896.4,143.2 897.8,138.5 898.5,136.0C899.3,133.5 900.6,128.9 901.5,125.7C904.1,116.7 903.0,117.0 937.0,117.0C958.7,117.0 966.9,117.3 967.8,118.2C969.5,119.9 969.5,447.1 967.8,448.8C967.0,449.6 961.0,450.0 947.4,450.0C931.3,450.0 928.0,449.8 927.0,448.5C925.9,447.2 925.8,421.2 926.1,314.3C926.5,190.2 926.4,181.7 924.8,180.6C923.4,179.8 922.6,180.1 920.5,182.0C919.1,183.3 918.0,185.0 918.0,185.9C918.0,186.7 917.4,189.2 916.6,191.5C915.9,193.7 914.5,198.1 913.6,201.3C912.1,206.8 910.2,213.4 907.4,223.0C906.7,225.5 905.4,230.2 904.4,233.5C903.5,236.8 902.2,241.3 901.5,243.5C900.8,245.7 899.5,250.4 898.5,254.0C897.6,257.6 896.2,262.5 895.5,265.0C894.7,267.5 893.4,272.2 892.4,275.5C891.5,278.8 890.1,283.5 889.4,286.0C888.7,288.5 887.4,293.2 886.4,296.5C885.5,299.8 884.1,304.6 883.4,307.2C882.6,309.9 881.4,314.1 880.6,316.8C879.9,319.4 878.5,324.1 877.6,327.2C876.7,330.4 875.3,335.6 874.4,338.8C872.8,344.3 871.9,347.4 868.6,359.0C867.8,362.0 866.9,365.7 866.6,367.1C866.3,368.5 864.9,370.9 863.6,372.3C861.1,375.0 861.0,375.0 846.5,375.0C838.4,375.0 831.1,374.6 830.1,374.0C828.2,373.0 826.3,368.4 823.5,358.0C822.6,354.4 821.3,350.4 820.8,349.0C820.2,347.6 819.4,344.9 819.0,343.0C818.5,341.1 817.7,338.1 817.2,336.5C816.6,334.9 815.4,330.8 814.4,327.5C811.0,315.5 809.8,311.4 808.8,308.5C808.3,306.9 807.4,303.9 807.0,302.0C806.5,300.1 805.2,295.4 804.0,291.5C802.8,287.6 801.5,282.9 801.0,281.0C800.6,279.1 799.7,276.0 799.1,274.2C798.5,272.5 797.5,269.5 796.9,267.8C796.3,266.0 795.4,262.9 795.0,261.0C794.6,259.1 793.7,256.1 793.2,254.5C792.6,252.8 791.4,248.8 790.5,245.5C789.6,242.2 788.4,238.2 787.9,236.5C786.4,232.2 784.1,224.1 783.0,220.0C782.2,216.7 779.8,208.5 776.4,197.5C775.6,194.8 774.4,190.4 773.8,187.8C772.1,180.3 766.5,176.3 764.1,180.8C763.5,182.0 763.4,227.3 764.0,309.1C764.5,378.6 764.9,437.9 765.0,440.8C765.0,444.7 764.5,446.5 763.0,448.0C761.2,449.8 759.7,450.0 743.7,450.0C728.1,450.0 726.1,449.8 724.7,448.2ZM1132.2,448.8C1130.5,447.1 1130.5,119.9 1132.2,118.2C1134.1,116.3 1221.1,116.5 1233.2,118.5C1262.9,123.3 1279.8,134.7 1290.7,157.5C1294.6,165.6 1296.0,169.1 1296.0,171.1C1296.0,172.2 1296.5,174.1 1297.1,175.2C1298.7,178.1 1301.9,203.7 1302.0,213.4C1302.0,228.7 1297.6,259.1 1294.4,265.2C1293.6,266.6 1293.0,268.3 1293.0,268.9C1293.0,269.9 1288.0,280.6 1284.4,287.3C1279.9,295.6 1263.8,309.1 1253.5,313.2C1238.4,319.2 1225.9,321.0 1199.1,321.0C1181.3,321.0 1176.0,321.3 1175.1,322.3C1174.4,323.3 1174.0,342.5 1173.8,385.9C1173.5,439.9 1173.3,448.2 1172.0,449.0C1169.7,450.5 1133.7,450.3 1132.2,448.8ZM1447.7,448.2C1446.1,446.5 1446.0,433.6 1446.0,283.2C1446.0,136.3 1446.2,120.0 1447.6,118.6C1449.0,117.2 1456.6,117.0 1516.4,117.0L1583.7,117.0L1584.8,119.5C1586.5,123.1 1586.4,149.7 1584.7,153.0L1583.4,155.5L1536.0,156.0L1488.5,156.5L1488.2,205.0C1488.1,231.7 1488.2,254.5 1488.5,255.8L1489.0,258.0L1532.9,258.0C1571.5,258.0 1577.0,258.2 1578.4,259.6C1580.9,262.0 1580.7,288.9 1578.2,291.9C1576.5,294.0 1575.9,294.0 1532.5,294.3L1488.5,294.5L1488.2,349.0C1488.1,379.0 1488.2,404.5 1488.5,405.8L1489.0,408.0L1538.9,408.0C1582.1,408.0 1588.9,408.2 1590.0,409.5C1591.6,411.5 1591.5,446.7 1589.8,448.7C1589.0,449.7 1575.3,450.0 1519.0,450.0C1452.8,450.0 1449.2,449.9 1447.7,448.2ZM1741.6,448.4C1740.2,447.0 1740.0,430.7 1740.0,283.5C1740.0,136.3 1740.2,120.0 1741.6,118.6C1742.9,117.3 1746.2,117.0 1761.9,117.0C1775.1,117.0 1781.0,117.4 1781.8,118.2C1782.7,119.1 1783.0,152.5 1783.0,262.5C1783.0,372.5 1783.3,405.9 1784.2,406.8C1785.1,407.7 1795.6,408.0 1825.1,408.0C1860.8,408.0 1864.9,408.2 1866.1,409.7C1867.9,411.8 1867.8,446.4 1865.9,448.6C1864.9,449.8 1855.4,450.0 1803.9,450.0C1750.0,450.0 1743.0,449.8 1741.6,448.4ZM2008.7,448.2C2007.1,446.5 2007.0,433.6 2007.0,283.6C2007.0,173.3 2007.3,120.2 2008.0,118.9C2009.0,117.1 2010.6,117.0 2055.2,117.0C2109.7,117.0 2116.1,117.6 2137.0,125.2C2142.4,127.1 2152.1,133.8 2156.7,138.9C2163.9,146.8 2169.9,158.0 2173.3,170.0C2179.5,191.9 2179.6,226.6 2173.5,246.1C2172.7,248.7 2172.0,251.3 2172.0,251.9C2172.0,254.7 2163.2,270.9 2157.9,278.0C2152.2,285.6 2148.9,288.8 2142.1,294.0C2133.3,300.6 2133.0,301.0 2133.0,305.1C2133.0,307.7 2134.9,312.9 2139.1,321.7C2142.4,328.8 2146.4,337.2 2148.0,340.5C2153.1,351.3 2163.2,372.3 2167.1,380.5C2169.2,384.9 2171.4,389.6 2171.9,391.0C2172.5,392.4 2173.4,394.2 2173.9,395.0C2174.8,396.6 2179.7,406.8 2185.5,419.5C2187.6,423.9 2191.3,431.7 2193.8,436.9C2197.1,444.0 2198.0,446.7 2197.3,447.9C2196.4,449.3 2193.1,449.5 2174.5,449.8C2154.9,450.0 2152.5,449.9 2150.8,448.3C2149.0,446.7 2146.3,441.4 2140.0,427.5C2138.8,424.8 2136.0,418.8 2133.9,414.2C2131.7,409.6 2130.0,405.7 2130.0,405.4C2130.0,405.2 2128.6,401.9 2126.9,398.2C2123.2,390.4 2119.2,381.8 2115.7,374.0C2114.3,371.0 2111.8,365.4 2110.0,361.5C2106.9,354.7 2104.2,348.7 2101.5,342.5C2100.8,340.9 2098.8,336.6 2097.1,333.0C2095.4,329.4 2094.0,326.1 2094.0,325.6C2094.0,325.1 2092.9,323.2 2091.4,321.3L2088.9,318.0L2070.6,318.0C2057.8,318.0 2052.0,318.4 2051.2,319.2C2050.3,320.1 2050.0,335.9 2050.0,384.0C2050.0,432.1 2049.7,447.9 2048.8,448.8C2048.0,449.6 2042.1,450.0 2029.0,450.0C2012.2,450.0 2010.1,449.8 2008.7,448.2ZM2455.1,412.4C2472.0,407.4 2478.7,398.5 2485.1,372.5C2485.7,369.8 2486.6,365.2 2487.0,362.5C2489.5,345.6 2490.0,341.6 2491.1,333.5C2492.8,319.2 2493.5,260.6 2492.0,246.5C2491.3,239.9 2490.4,230.2 2490.0,225.0C2489.3,216.0 2488.2,209.3 2485.8,199.0C2485.2,196.5 2484.3,192.2 2483.8,189.5C2483.3,186.8 2482.4,184.1 2481.9,183.6C2481.4,183.0 2481.0,181.8 2481.0,180.8C2481.0,177.5 2474.6,166.9 2469.9,162.6C2462.3,155.4 2456.3,153.7 2437.4,153.2C2413.3,152.6 2405.4,154.7 2396.3,164.1C2391.5,169.0 2385.1,179.9 2385.0,183.2C2385.0,184.2 2384.4,186.7 2383.6,188.7C2376.9,207.3 2372.3,262.5 2374.1,302.0C2375.9,341.1 2378.7,363.6 2383.5,379.1C2384.3,381.7 2385.0,384.4 2385.0,385.2C2385.0,387.7 2391.0,398.2 2394.8,402.5C2398.6,406.7 2402.7,409.4 2410.0,412.1C2416.4,414.5 2447.2,414.7 2455.1,412.4ZM1226.0,283.0C1234.2,279.9 1238.5,277.2 1242.7,272.6C1246.9,267.9 1254.0,254.7 1254.0,251.5C1254.0,250.7 1254.7,247.5 1255.5,244.3C1256.7,240.0 1257.0,232.9 1257.0,216.3C1257.0,197.2 1256.7,192.9 1255.0,186.4C1251.1,171.3 1246.7,164.3 1238.0,159.2C1228.8,153.7 1224.6,153.0 1199.4,153.0C1181.4,153.0 1176.0,153.3 1175.1,154.3C1173.5,156.3 1173.5,281.7 1175.1,283.7C1176.2,284.9 1179.9,285.1 1199.4,284.8C1215.4,284.5 1223.6,283.9 1226.0,283.0ZM137.4,280.0C140.5,278.8 144.8,276.9 146.8,275.6C151.0,272.9 157.5,266.4 159.6,262.8C162.8,257.3 167.4,247.2 168.1,244.0C168.5,242.1 169.3,238.7 169.9,236.5C170.5,234.3 171.0,224.0 171.0,213.6C171.0,198.1 170.6,193.3 169.0,186.5C165.2,170.8 159.2,162.5 147.3,156.8L140.5,153.5L115.5,153.2C92.6,152.9 90.5,153.0 89.3,154.6C87.6,156.9 87.4,277.0 89.0,280.1C90.0,281.9 91.3,282.0 110.8,282.0C129.1,282.0 132.3,281.8 137.4,280.0ZM2098.4,280.4C2112.8,275.5 2123.7,263.9 2128.4,248.5C2129.5,245.2 2130.9,240.5 2131.6,238.1C2133.7,231.4 2133.5,195.9 2131.4,187.2C2129.1,177.8 2127.1,173.2 2122.8,167.5C2118.0,161.0 2114.0,158.4 2103.8,154.9C2098.8,153.2 2095.1,153.0 2075.1,153.0C2053.4,153.0 2052.0,153.1 2051.0,154.9C2050.4,156.2 2050.0,177.6 2050.0,217.5C2050.0,257.4 2050.4,278.8 2051.0,280.1C2052.0,281.9 2053.3,282.0 2072.9,282.0C2089.5,282.0 2094.6,281.7 2098.4,280.4ZM410.2,76.4C408.1,74.9 408.0,74.4 408.0,56.2C408.0,40.8 408.3,37.0 409.6,35.2C411.1,33.1 411.7,33.0 428.6,33.0C444.3,33.0 446.1,33.2 446.8,34.8C447.2,35.7 447.5,45.4 447.5,56.3C447.5,72.8 447.3,76.2 446.0,77.0C445.2,77.5 437.3,78.0 428.5,78.0C415.6,78.0 412.0,77.7 410.2,76.4ZM490.9,76.3C489.8,75.1 489.4,70.0 489.2,56.3C488.8,31.2 487.1,33.0 509.5,33.0L527.0,33.0L528.1,35.8C529.3,38.9 529.0,74.8 527.7,76.8C527.1,77.7 522.3,78.0 509.6,78.0C494.7,78.0 492.1,77.8 490.9,76.3Z"/></svg>