<svg id="Ebene_1" data-name="Ebene 1" xmlns="http://www.w3.org/2000/svg" viewBox="0 0 343.2 316.16"><defs><style>.cls-1{fill:#fecc44;}.cls-2{fill:#008583;stroke:#fff;stroke-miterlimit:10;}.cls-3{fill:#5a5a5a;}.cls-4{fill:#ffe91c;}.cls-5{fill:#999;}.cls-6{fill:#7cc6bb;}.cls-7{fill:#fff;}</style></defs><title>ruempelross_schriftzug</title><path class="cls-1" d="M422.37,231.59q-4-33.34-11-66.18-2-9.34-4.26-18.63c-.42-1.73-2.46-3.08-4.07-2-8.3,5.44-16.66,10.79-24.9,16.33s-16.6,10.82-23.95,17.58a1.45,1.45,0,0,0-.33.44c-.94.81-1.88,1.62-2.83,2.42a1.91,1.91,0,0,0-.73,1.4,1.69,1.69,0,0,0-.75,1.52c1.46,4.86,2.79,9.77,4.1,14.64,2.25,8.33,4.5,16.83,5.61,25.43a2.2,2.2,0,0,0,2.85-2.4q-.25-2.73-.56-5.44a2.52,2.52,0,0,0,.46-.1,2.71,2.71,0,0,0,3.68.92,2.47,2.47,0,0,0,.36.11,10.61,10.61,0,0,0,.45,6.11c.83,2.18,3.79,2,4.9.29l3.81-5.86a3.08,3.08,0,0,0,1.75-1,2.91,2.91,0,0,0,3.74,1.9,3.18,3.18,0,0,0,1.63,2.44,2.6,2.6,0,0,0,2.67-.14c.84,1.52,2.7,2.33,4.21.74l.84-.91c.58,1.89,3.23,3.11,4.7,1.44l.31-.36c.43,2.08,3.18,3.6,4.72,1.74.43-.52.86-1,1.28-1.57.63,1.48,2.21,2.48,3.62,1.78l.12,1.06c.22,2,2.58,2.78,4.15,2.05a2.86,2.86,0,0,0,2.36,0,26.91,26.91,0,0,0,1.17,3,2.58,2.58,0,0,0,4.13,1c.06.55.13,1.1.2,1.65a2.9,2.9,0,0,0,3.4,2.31A3.06,3.06,0,0,0,422.37,231.59Zm-59.05-50a2.64,2.64,0,0,0-.54-.35l-.09,0c0-.13.07-.26.11-.39l.6-.38.06.23A6,6,0,0,0,363.32,181.6Zm6.13,4.21a3.93,3.93,0,0,1-1-.46l1.45-.26c.36-.06.71-.14,1.07-.21Zm17.74-14.06c-3.11,5-8.2,9.85-13.87,11.12a1.45,1.45,0,0,1-1.24-.28c-.41.12-.82.22-1.23.31a1.22,1.22,0,0,1-1.38-.88l-.27.06c.07-.21.15-.41.23-.61a1.16,1.16,0,0,1,.17-.48h0c.05-.15.09-.29.13-.43a9.08,9.08,0,0,1,1.53-3.1,18.82,18.82,0,0,1,5.44-4.29l.16-.09a13.59,13.59,0,0,1,2.61-1.67,27.57,27.57,0,0,1,4.16-2.32l.43-.17v.51l.81-.29a1.14,1.14,0,0,1,.54-.06h0A1.77,1.77,0,0,1,387.19,171.75Z" transform="translate(-257.88 -141.99)"/><path class="cls-1" d="M421.7,154.74c2.68,5.32,5,10.81,7.39,16.27l.14.22a24.57,24.57,0,0,1,2.36,4.37,51.35,51.35,0,0,1,11.14.41c0-.22,0-.43,0-.64l.59.17,0,.54c3.72.53,7.41,1.3,11,2.08,6.9,1.48,13.77,3,20.72,4.19,7.45,1.28,14.88,2.74,22.2,4.66,11,2.89,22.18,6.83,31.95,13.1-5.51-8.07-11-16.15-16.08-24.54-2.08-3.43-4.09-6.93-5.94-10.51l-2.78-1.25q-4.68-2.09-9.41-4Q485.5,156,475.78,153a268.61,268.61,0,0,0-39.94-9.47,106.34,106.34,0,0,0-11.21-1.43,70.61,70.61,0,0,0-10.19.37l1.31,1.92A96.06,96.06,0,0,1,421.7,154.74Zm82.19,16.39a2.66,2.66,0,0,1,.42.7,2.49,2.49,0,0,0,0,.47,11.85,11.85,0,0,0-.62-1.35Zm-4.4,9.07a3.09,3.09,0,0,0,.12-1.32l.14-.14c0,1.22-.15,2.45-.27,3.59-.17-.18-.33-.37-.5-.56Zm-7.89-10.47a22,22,0,0,1,3.9,1.35c-3.17-1-6.36-1.85-9.56-2.7C487.84,168.79,489.73,169.22,491.6,169.73ZM454.51,162l-3.14-.44,0-.16Zm-29.06-14.08a2.22,2.22,0,0,0-.28.33l-.27-.42Z" transform="translate(-257.88 -141.99)"/><path class="cls-1" d="M479.35,188.44c-8.21-1.84-16.44-3.59-24.67-5.33l-12.17-2.56-2.26-.45c-1.21-.13-2.43-.23-3.65-.29s-2.51-.07-3.76,0c-1,0-2.26.34-3.16-.26s-1.61-2.17-2.13-3.15-1.08-1.92-1.64-2.87c-1.27-2.14-2.42-4.36-3.51-6.6-.6-1.26-1.19-2.52-1.78-3.78-2.23-3.3-4.5-6.57-6.73-9.87l.66,4.61c1.57,10.79,3.15,21.57,4.89,32.34q1.29,8,2.72,16,.75,4.14,1.54,8.28c.47,2.46,1.32,5.1,1.27,7.62a1,1,0,0,1-1.47.87l.16,1c.38,2.35.33,6.71,2.88,7.76,2.06.85,2.76-1.22,2.89-3.1a3,3,0,0,0,3.85-3,2.68,2.68,0,0,0,1.53.12,2.73,2.73,0,0,0,2-2l.11,0c.3.93.61,1.86.95,2.78a2.78,2.78,0,0,0,3.49,1.44,2.9,2.9,0,0,0,1.8-2.31l.18,1.92c.35,3.52,5.31,2.71,5.62-.47l0-.43.43-.17c0,.29.08.59.13.88a2.87,2.87,0,0,0,3,2.33,2.9,2.9,0,0,0,2.57-2.58,3,3,0,0,0,1.08.79,2.74,2.74,0,0,0,.33.69c0,.2,0,.41-.08.62a2.87,2.87,0,0,0,4.72,2.39,17.72,17.72,0,0,0,2-2.15c-.07.67-.14,1.35-.19,2a2.71,2.71,0,0,0,1.46,2.74c.57,2.19,4,3,5.16.8l.86-1.67a2.81,2.81,0,0,0,2.35-1.44l0,.45a3,3,0,0,0,2.33,3.09,2.81,2.81,0,0,0,3.23-2l.13-.46a3,3,0,0,0,3.09.91,2.63,2.63,0,0,0,3.64-1.75l0-.08c.5,2.73,4.85,3.53,5.51.41.05-.26.11-.52.17-.79a2.76,2.76,0,0,0,2.1,1.91,3,3,0,0,0,1.84-.28,2.77,2.77,0,0,0,3.7,1.7,11.28,11.28,0,0,0-.32,2.51c0,2.19,3.15,3.84,4.28,1.49,1.44-3,1.79-6.84,2.45-10.14s1.26-6.44,1.84-9.67c1.2-6.69,2.29-13.4,3.23-20.14.13-.91.24-1.83.36-2.74C500.38,192.85,489.76,190.78,479.35,188.44Zm25.16,15q-.86,5.72-1.84,11.41l1.47-12a3.33,3.33,0,0,0,.46,0Z" transform="translate(-257.88 -141.99)"/><path class="cls-1" d="M341.28,210.68a58.94,58.94,0,0,1,5.44-2.85c1.08-.51,3.26-1.86,4.93-1.87-.64-5.68-1.58-11.49-3.88-16.72a2.1,2.1,0,0,0-.58-1.17,1.14,1.14,0,0,0-.11-.11,2.8,2.8,0,0,0-.53-.37c-2.15,7.44-4.06,14.95-5.93,22.48A1.1,1.1,0,0,0,341.28,210.68Z" transform="translate(-257.88 -141.99)"/><path class="cls-2" d="M287.88,254a8.79,8.79,0,0,0-5.93-4.36c-5.45-1.41-11.05-2.26-16.55-3.37-1.47-.3-2.85,1.46-2.9,3q-1,30.77-1.65,61.55c-.06,3.13-.12,6.25-.17,9.38q-1.12,16.73-1.71,33.5-.5,14.13-.59,28.29c0,1.52,1.11,3.39,2.65,3.25a56.16,56.16,0,0,0,10.45-1.89,11.57,11.57,0,0,1,4.85,1.13c1.74.93,3.48-1.05,3.64-2.83a28.94,28.94,0,0,0-.62-9,3,3,0,0,0-2.58-2.42,20.39,20.39,0,0,0-7.14,0q1.62-43.33,3.66-86.67.51-10.95,1-21.91a34.43,34.43,0,0,0,9.4,1l.4,0,.35.13a2.73,2.73,0,0,0,3.2-1.28A7.45,7.45,0,0,0,287.88,254ZM274.32,376.22c0,.1,0,.2,0,.3a2.07,2.07,0,0,0-1.49-.07c-.72.25-1.45.48-2.18.7l-1.5-.15-.68-.09A16.88,16.88,0,0,1,274.32,376.22Z" transform="translate(-257.88 -141.99)"/><path class="cls-2" d="M597.92,267.12c-7.71-1.55-16.35-1.28-23.71,2.05-1-.09-2-.2-2.94-.32-2.83-.36-3.77,5-.91,5.62.89.19,1.77.35,2.66.49a2.06,2.06,0,0,0,1.19.18,58.59,58.59,0,0,0,14.91.08q-4.51,47.26-7.93,94.65-.88,12.08-1.69,24.16l-2.49-.74c-3.44-1-5.12,4.63-1.71,5.94a21.69,21.69,0,0,0,3.08.92l2.77.82a2.68,2.68,0,0,0,2.32-.35c.77,0,1.55-.07,2.33-.16,1.28-.15,2-1.65,2.16-2.9q6-49.35,10.3-98.94,1.23-14.12,2.31-28.24A3.08,3.08,0,0,0,597.92,267.12Zm-7.59,57.15q1-12.27,2.11-24.54.88-9.92,1.8-19.84Q592.45,302.11,590.33,324.27Z" transform="translate(-257.88 -141.99)"/><path class="cls-3" d="M577.61,328q0-32.58,0-65.16c0-6.61-1.31-11.87-3.9-12.21q-12.7-1.68-25.43-3.33l0-1.23a27.48,27.48,0,0,0-.1-5.29c-.81-4.34-4.08-4.68-7-4.7q-6.95-.06-13.87-.34c2-1.47,1.68-6.33-1.25-6.65l-16.47-1.83c-6.09-2.14-12.47-3.1-18.66-.92a2,2,0,0,0-.91,2.3l-2.75-.45q-7.46-1.22-14.92-2.38a2.54,2.54,0,0,0-1.78-1q-18.72-2-37.34-5.07-4.57-.75-9.15-1.55c-2.73-.47-6.12-1.85-7.77,2a11.92,11.92,0,0,0-.62,2q-8.13-1.12-16.29-2-6.94-.75-13.92-1.25l-.91-.06a3.65,3.65,0,0,0,.26-1.79,5.56,5.56,0,0,0-1-2.88.92.92,0,0,0-.26-.32,5.8,5.8,0,0,0-7.68-.73,3.24,3.24,0,0,0-.95,1.26,57.32,57.32,0,0,0-11.26-.38c-2.47-.1-4.93-.19-7.39-.21-2,0-5.5-.65-7.42,1-1.81,0-3.61,0-5.39,0-3.56,0-7.12,0-10.68.15-1.73.08-3.46.17-5.19.29-1.93.13-4,0-5.87.82a3.2,3.2,0,0,0-1.91,3q-15.78-1.86-31.57-3.67c-2.9-.34-4.79,6.55-4.79,13.41-1.19.56-2.27,2.67-2.64,6.66-2.1,22.75-.9,47.18.36,69.29.6,10.59,5.68,11.1,7.79,3.55.87,3.05,2.49,4.38,3.95,3.38a14.81,14.81,0,0,0,9.91,2.11c16.65-1.64,33.29-3.23,49.93-4.24a1,1,0,0,0,.94.61c3.68.06,7.36.16,11,.25-.69,2.13.18,5.34,2.34,5.2a435,435,0,0,1,69.43,1A101.3,101.3,0,0,0,422,321.13a3.58,3.58,0,0,0-2.17,3.29c-.05,1.43.73,3.2,1.9,3.5l5.41,1.4a25.2,25.2,0,0,0-3.72,3.48c-2.29,2.61.46,8.05,3.14,5.73a7.73,7.73,0,0,0,.58-.56v0A16.35,16.35,0,0,1,438,332.09a3.12,3.12,0,0,0,2.85-2.93c.21-1.58-.46-3.63-1.83-4l-4.13-1.06c2.38-.64,4.79-1.18,7.2-1.63,3.06-.56,6.12-1,9.19-1.34s6.27-.5,9.23-1.6l3.3.52a11.66,11.66,0,0,0,1.66.35c.85.1,1.71.22,2.56.34,1.32.22,2.65.44,4,.68,1.48.26,2.85-1.62,2.92-3.4a4.32,4.32,0,0,0-.16-1.39l10.94,1c1.53.14,2.45-1.07,2.73-2.52a2.41,2.41,0,0,0,1.95-1.3q7.05,2,14.09,4.08c22.81,6.8,45.56,14.32,68.31,21.85C574.9,340.46,577.61,334,577.61,328Zm-280-38.43.09-1.42c.39.39.79.77,1.19,1.1s.57.44.85.65A9.92,9.92,0,0,1,297.63,289.54Zm264.46,22.38c0-.46,0-.91,0-1.36l.2-.13c0,.54,0,1.06.07,1.58Z" transform="translate(-257.88 -141.99)"/><path class="cls-4" d="M342.51,269.56a60.7,60.7,0,0,0-8.79-9.21,24.2,24.2,0,0,0,5.71-3.92,16.74,16.74,0,0,0,5.22-15.33c-1.09-5.72-5.4-10.25-10.06-12.76-6.29-3.37-13.33-4.59-20.13-2.31a13.33,13.33,0,0,0-7.13,5c-1.13,1.74-1.48,4.29.11,5.58a3.22,3.22,0,0,0-.64,1.64c-.34,3.62-.38,7.27-.36,10.92-.05,1.08-.09,2.13-.15,3.14q-.51,9-1,18c-.17,3.12-.57,6.21-.94,9.32-.28,2.33-.66,4.81,0,7.11a6.79,6.79,0,0,0,4.49,4.45c1.14.37,4,.11,4.62.55,3.2,2.22,7.94-.77,7.75-4.93,0-.24,0-.48,0-.72,1.5-3.37.65-7.78.52-11.46-.1-2.94-.22-5.88-.33-8.82h0c2.45,2.57,3.49,7.21,4.89,10.48,1.88,4.42,3.89,8.9,6.18,13.09A4,4,0,0,0,337.7,292a6.39,6.39,0,0,0,3.89,1.17c4.9-.24,8.2-5.13,8.15-10.22C349.69,277.41,345.71,273.37,342.51,269.56ZM320.8,252.31c-.08-1.74-.16-3.49-.26-5.24-.16-3-.21-6-.54-9h.13c3.1.09,5.92-.18,7.72,2.92a7.92,7.92,0,0,1-.09,7.88,9,9,0,0,1-2.23,2.68l-1.13.27A24.76,24.76,0,0,1,320.8,252.31Z" transform="translate(-257.88 -141.99)"/><path class="cls-4" d="M387,272.78a122.16,122.16,0,0,0-.27-15.9c-.5-4.58-3.19-9.59-7.48-9.19-2.9.27-4.63,2.18-5.13,5.7-.79,5.55-.06,11,0,16.59.06,2.6.29,9.46-2.42,10.73s-4.47-3.59-4.87-6c-.88-5.15.11-10.54,0-15.75-.12-5.36-.74-12.52-5.84-14.14s-8.31,4.31-8.63,9.75c-.29,5,.84,9.94,2.19,14.55.52,1.76,1.12,3.48,1.68,5.22a45.79,45.79,0,0,0,1.08,8.27c2.15,9.23,9.29,17.43,17.71,14.24C383.68,293.61,386.81,282.75,387,272.78Z" transform="translate(-257.88 -141.99)"/><path class="cls-4" d="M363.28,221.7c-2.86-.18-5.53,2.28-6.39,5.52s0,7.07,2.39,8.68l0,.07c2.62,5.42,9.93,4.92,11.61-1.35C372.48,228.78,368.1,222,363.28,221.7Z" transform="translate(-257.88 -141.99)"/><path class="cls-4" d="M384.63,225.65c-2.94-1-5.8.42-7.61,3.32a8.43,8.43,0,0,0-1.16,4.23.56.56,0,0,0,0,.13,6.73,6.73,0,0,0-.12,1,10.85,10.85,0,0,0,.11,1.39c0-.55,0-.16.09,1.21a10.21,10.21,0,0,0,.45,1.55,9.9,9.9,0,0,0,1,1.82,6.51,6.51,0,0,0,5.46,3.19c3,0,5.53-2.2,6.66-5.55C391.1,233.19,388.73,227.07,384.63,225.65Z" transform="translate(-257.88 -141.99)"/><path class="cls-4" d="M375.85,235.77c0,.17,0,.4,0,.73C375.89,236.26,375.87,236,375.85,235.77Z" transform="translate(-257.88 -141.99)"/><path class="cls-4" d="M435.8,289.93q.18-12.8.35-25.58c.11-8.23,1-17.18-.48-25.26-.49-2.6-2.92-4.77-5.16-3.92l-2.2.83-.42.18c-1.92-1-4.34-.21-5.44,3.07q-2.56,7.65-5.13,15.31c-.47-1.05-.94-2.09-1.42-3.12-.94-2.05-2-4-3.09-5.94a35.69,35.69,0,0,0-4.26-5.43h0c-1-4.16-5.88-4.68-7.69-1.22a3.75,3.75,0,0,0-1,1.63c-1.58,5-1.13,10.74-1.22,16-.09,5-.27,10.05-.55,15.06-.45,8.1-3.51,22.37,5.52,25.24,2.89.92,5.25-1.29,5.66-4.77a211.23,211.23,0,0,0,1.36-30.58c.76,2.08,1.53,4.16,2.37,6.19.09.24.19.47.3.72,1,2.22,3.22,3.3,5.2,2.37a5,5,0,0,0,1.9-1.72,4.89,4.89,0,0,0,2.34-2.94c.18-.54.36-1.09.55-1.63s.62-.92.91-1.4c-.05,1.37-.09,2.74-.14,4.11-.3,8.69-1,17.65,0,26.29a3.52,3.52,0,0,0,4.46,3.15,3.72,3.72,0,0,0,4.72-2.14C434.64,293.84,435.77,292.35,435.8,289.93Z" transform="translate(-257.88 -141.99)"/><path class="cls-4" d="M483.3,249.93c-1.34-7.36-5.94-13.71-12-15.67a16.93,16.93,0,0,0-6.74-.73,29.52,29.52,0,0,0-11.45.56c-2.28.51-3.47,2.58-3.69,4.84-.26,1.72-.13,3.42-.24,5.18-.14,2.19-.1,4.42-.1,6.61q0,7.62,0,15.24c0,9.88-.54,20,0,29.83-.32,4.71,3.34,6.65,6.24,5.59l.11.11a1.74,1.74,0,0,0,2.1.11,5.45,5.45,0,0,0,1.87-2.35c2.82-1.25,4.38-4.42,4.29-8.53-.13-5.34-.18-10.69-.29-16,4.94,1.26,10.31-.52,14.28-4.35C482.7,265.49,484.66,257.38,483.3,249.93Zm-20.33,12a125.9,125.9,0,0,0-1.74-15.29c1.48.22,3,.46,4.44.77a3.27,3.27,0,0,0,1,.07,8.6,8.6,0,0,1,4.19,5.9C472.13,258.93,466.76,261.55,463,261.89Z" transform="translate(-257.88 -141.99)"/><path class="cls-4" d="M519.59,292.32c-2.94-4.5-7.82-4.81-12.2-4.61-2.16.09-4.7.12-7.2.47.09-2.65.15-5.3.26-7.9,0-.57,0-1.14.07-1.72a22.92,22.92,0,0,0,13.4-.73c5.34-2,4.2-11.52-.57-11.65a4.78,4.78,0,0,0-1.19-.62c-3.52-1.24-7.81-2-11.17.1.05-1.45.1-2.9.14-4.34.09-2.89.19-5.77.25-8.66l11.47.54a3.92,3.92,0,0,0,.85.21,8.14,8.14,0,0,0,3.06-.23c5.48-1.28,4.66-11.52-.84-11.78l-2.87-.13A4.49,4.49,0,0,0,510.2,240c-4.66-.35-9.45-1.32-14.05-.35a4.17,4.17,0,0,0-3.29-1.24,3.25,3.25,0,0,0-2.93,2.55l0-.06c-1,3.12-.15,6.78-.27,10-.18,4.83-.63,9.65-.94,14.47-.65,9.85-1.47,19.75-1.81,29.62-.1,3.1,1.5,5,3.43,5.67,1.05,2.89,3.75,3.87,6,2.89a4,4,0,0,0,1.32-.06,59.38,59.38,0,0,1,18.11-1.22C520.22,302.71,522.1,296.16,519.59,292.32Z" transform="translate(-257.88 -141.99)"/><path class="cls-4" d="M554.11,286c-2.65-.33-5.46.38-8.11.7-2.26.29-4.68.34-7,.8.25-3.1.45-6.2.74-9.19.7-7,1.41-14,2.06-20.94.52-5.55.67-12.1-3.85-15.32a5.59,5.59,0,0,0-6.55-.16,5.42,5.42,0,0,0-1.74,2.17,5.34,5.34,0,0,0-1.16,3.42c-.85,3.28-.55,7.19-.66,10.57l-.36,12c-.24,7.82-.42,15.63-.63,23.45l.11-.07a6.21,6.21,0,0,0,1.88,5c.77,3,3.6,4.74,5.86,4,3.27,2,7.77,1.41,11.32,1.51,4.68.12,11.37,1.46,14.45-4.12C563.91,293.59,559.52,286.65,554.11,286Z" transform="translate(-257.88 -141.99)"/><path class="cls-5" d="M335.33,210.18c-2.56-3.12-7.1-3.74-10.56-3.36a2.69,2.69,0,0,0-2.46,2.09,3.39,3.39,0,0,0,1,3.45,7.14,7.14,0,0,0,4.08,1.43,2,2,0,0,0,1.37-.5c.47.08.95.15,1.42.25.93.31,1.87.65,2.85.9h0C335.05,215.42,336.8,212,335.33,210.18Z" transform="translate(-257.88 -141.99)"/><path class="cls-5" d="M516.23,217.67a10,10,0,0,0-9.33.2l-.23,0a2.18,2.18,0,0,0-1.44,1.07c-2,1.76-1.24,5.32,1.23,5.72l.37,0c3.29,2.86,8.4,1.76,10.74-2.43A3.44,3.44,0,0,0,516.23,217.67Z" transform="translate(-257.88 -141.99)"/><path class="cls-6" d="M358.48,412.24q-1.62-3.64-3.42-7.18l-15-31.38a38.12,38.12,0,0,0,10.5-17.92c1.9-6.59,1.73-13.85-1.72-19.86-3.92-6.83-10-10.5-16.58-12.77-5.12-4.38-12.29-5.47-18.72-4.91a103.11,103.11,0,0,0-14.94,2.69c-4.47,1.06-9,2.52-12.81,5.39a3.41,3.41,0,0,0-1.42,3.46,2.92,2.92,0,0,0,2.55,2.42,3.24,3.24,0,0,0,1.78,5.38l1.49.2a29.85,29.85,0,0,0-2.16,3.2,3.32,3.32,0,0,0,1.48,4.66l1.11.53c-.62.2-1.24.37-1.87.52-3.5.8-2.28,6.88,1.24,6.08l.84-.21c.59-.15,1.18-.3,1.77-.48,0,.66,0,1.32,0,2l0,12.75q-1,24.25-.21,48.58c.11,3.75,5.18,4.13,5.27.26,0-.12,0-.23,0-.35a2.75,2.75,0,0,0,4.86-1.92v-.83a.5.5,0,0,0,.05.13,2.75,2.75,0,0,0,5.24-1.31c0-.21,0-.42,0-.63a3,3,0,0,0,.57-.81,1.43,1.43,0,0,0,.15.18c.36,2.4.78,4.8,1.27,7.18a2.85,2.85,0,0,0,4,2.09,3,3,0,0,0,2.46-3c-.21-9.91-.42-19.85-.43-29.78l6.52,8.9q4.28,7.94,9.25,15.36a2.16,2.16,0,0,0,1.39,1q1.35,2.67,2.65,5.35a2.72,2.72,0,0,0,1.67,1.53,2.87,2.87,0,0,0,4.47-3.1,4,4,0,0,0,.45-.47,2.8,2.8,0,0,0,4.12-1.28,3.07,3.07,0,0,0,.55-2.58h0c.91,1.64,1.8,3.31,2.65,5,1.23,2.47,4,1.8,4.93-.07C356.46,417.89,359.86,415.35,358.48,412.24Zm-57.63-82.7,3.5-.69c2-.37,3.93-.67,5.9-.86l-.34.1c-1.39.22-2.77.47-4.12.73-2,.38-4,.7-5.91,1.19C300.2,329.84,300.52,329.69,300.85,329.54Zm6.79,79.17c0-.23,0-.46,0-.68h0a3.78,3.78,0,0,0,.12.7Zm8.42-41.56c0-.09,0-.18,0-.27l1.5-21.26a10.44,10.44,0,0,1,8.66,5,12.49,12.49,0,0,1,1.42,3.22,16.55,16.55,0,0,1-3,8.65A38.21,38.21,0,0,1,316.06,367.15Z" transform="translate(-257.88 -141.99)"/><path class="cls-6" d="M486.48,382.87c-3.38-10.29-11.52-16.8-18.94-23.26-2-1.78-4.06-3.58-6-5.55l-.39-.41a5.33,5.33,0,0,1,2.38-3.18,8,8,0,0,1,.83-.07c4.5-.12,8.74,2,12.13,5.18,1.19,1.13,2.82.45,3.7-.81a2.84,2.84,0,0,0,1.27-1.16,3.42,3.42,0,0,0-.83-4.3c-.72-.69-1.48-1.34-2.24-2h1c2.27,0,3.24-2.33,2.63-4.19l.64.08a2.84,2.84,0,0,0,2.83-2.56,3.22,3.22,0,0,0-1.84-3.52c-1.68-.83-3.38-1.58-5.11-2.27a2.23,2.23,0,0,0-1.21-2.85,39.17,39.17,0,0,0-5.73-1.39c-.43-.16-.86-.31-1.3-.45a1.7,1.7,0,0,0,0-.39,3,3,0,0,0-2.62-2.84,29.59,29.59,0,0,0-11.29.23,2.5,2.5,0,0,0-1.67,1.34c-.58.07-1.17.15-1.75.25a27,27,0,0,0-4.47.55c-7.8,1.61-15.55,7.77-15.66,17.43a17.53,17.53,0,0,0,.61,4.81c0,.13-.05.26-.07.39A13.54,13.54,0,0,0,438,364c3.76,3.51,8.05,6.42,12.06,9.55,2,1.56,4,3.09,6,4.7a11.38,11.38,0,0,1,3.85,4.64c1.16,3.19-.41,6.91-2.65,9-3.37,3.08-8.33,2.45-12.09.76-4.67-2.09-8.36-6.4-11.76-10.41a2.82,2.82,0,0,0-4.75,2.79c.39,1.45.84,2.88,1.34,4.27a2.69,2.69,0,0,0-2.34,1.1,3.48,3.48,0,0,0,.06,4.09c.28.46.57.91.86,1.36a3.27,3.27,0,0,0-2.13,4.56c.27.53.54,1.05.8,1.58a3.27,3.27,0,0,0-1.81,1.27,3.39,3.39,0,0,0-1.11,4.13c2.4,5,6.72,8,11.38,9.74,1.43.55,2.88,1,4.35,1.43a1.06,1.06,0,0,0,.41.51c.39.23.79.44,1.19.63a3.3,3.3,0,0,0,.31.51c5.56,7.31,14.24,6.63,21.87,4.76.85-.19,1.69-.4,2.53-.67a3.27,3.27,0,0,0,1.82-4.36,25.83,25.83,0,0,0,11.44-6.59C487.09,405.89,489.91,393.31,486.48,382.87Zm-46.82-31.94-.12-.35.2-.45C439.7,350.39,439.68,350.66,439.66,350.93Zm3.18,9.4.33.08.06.23Zm4,39.7a.3.3,0,0,0-.08.08,3.35,3.35,0,0,0-.28-.57c.24.06.48.13.73.18A2.17,2.17,0,0,0,446.8,400Zm5.28-49c.26-.33.53-.64.81-.94l.61.1a6.18,6.18,0,0,0,0,1.49A2.8,2.8,0,0,0,452.08,351Zm27.36,53c.07-.21.14-.41.2-.62a2.37,2.37,0,0,0,.27-.28C479.76,403.39,479.61,403.69,479.44,404Z" transform="translate(-257.88 -141.99)"/><path class="cls-6" d="M558.73,411.26a33.54,33.54,0,0,0,.18-13.14c-1.9-10.39-8-18.9-14.61-26.09-3.58-3.88-8-7.4-10.72-12.18a7.26,7.26,0,0,1-.78-1.66A103,103,0,0,1,550,369.82c2.49,2.06,5.82-2.22,3.62-4.66,1.58-.81,2.59-3.38,1.11-5.06a39.46,39.46,0,0,0-7.91-6.94c2.39,1.07,4.76,2.17,7.11,3.32,1.25.61,2.82-.34,3.35-1.64a3.41,3.41,0,0,0-1-3.95l-.59-.5a2.91,2.91,0,0,0-.68-2.53c-1.2-1.33-2.45-2.58-3.74-3.77a3,3,0,0,0-1.12-1.64,60.35,60.35,0,0,0-7-4.62c-7.79-4.91-16.23-9.14-25.14-8.73-4.9.23-9.84,1.72-13.62,5.36-4.35,4.2-6,10.68-5.18,16.92.88,7.12,5,13,9.9,17.33,4.94,6.2,10.9,11.28,16.15,17.14a49.83,49.83,0,0,1,7.4,10.34c.61,1.19,2,3.62,1.18,4.67s-2.4,1.07-3.54,1c-4.4-.18-8.87-3.16-12.4-5.89a96.82,96.82,0,0,1-11.63-11.3c-2.55-2.77-6.4,1.11-4.08,4.18.81,1.08,1.66,2.12,2.52,3.14l-2.46-.89c-2.56-.92-4.88,2.8-2.9,5l1.08,1.18a2.84,2.84,0,0,0-.27,3.26q1.27,2.31,2.72,4.48c-.5,0-1,0-1.5.05a3.18,3.18,0,0,0-2.23,5.09c-.46,0-.92-.06-1.38-.07A3,3,0,0,0,495,414c.1.31.21.69.33,1.11a3.46,3.46,0,0,0-.22.31c-1.91.82-2.85,4.28-.64,5.61a89.92,89.92,0,0,0,8.56,4.54c.5.27,1,.54,1.53.79a2.53,2.53,0,0,0,.75.22c1.45.61,2.91,1.18,4.39,1.69,2.32.81,4.71,1.56,7.12,2.15a46.49,46.49,0,0,0,12.07,2.34A31,31,0,0,0,548.54,427l.36-.21-.25.3a30.57,30.57,0,0,1-2.84,3.59c-1,.89,0,2.9,1.17,2.51,1.87-.6,3.5-.78,5.2-2a17.94,17.94,0,0,0,4.26-4.77,29.24,29.24,0,0,0,4.46-12A3,3,0,0,0,558.73,411.26Zm-45.08-46.18c-.15-.19-.31-.37-.46-.57l0,0a2.72,2.72,0,0,0,.61-.2Zm-1.9-20.88a12.81,12.81,0,0,1,3.63-1.94l.12,0A28,28,0,0,0,511.75,344.2Zm4.31,10.56c.07-.44.16-.87.25-1.3a3.22,3.22,0,0,0,.24.61Zm2.53-19.39c-.67.06-1.34.16-2,.28a14.19,14.19,0,0,0-4.7.89,16.73,16.73,0,0,1,8-1.25C519.45,335.3,519,335.33,518.59,335.37Zm-.78,68.54-.79-.38a1.9,1.9,0,0,0-.83-.19,3.21,3.21,0,0,0-.05-.69,2.34,2.34,0,0,0,1,.14c.57.39,1.15.77,1.74,1.13Zm20.76.5h-.19a7.51,7.51,0,0,0,.39-.68c0,.11.08.22.13.33a2.29,2.29,0,0,0,.1.23A3.06,3.06,0,0,0,538.57,404.41Z" transform="translate(-257.88 -141.99)"/><path class="cls-6" d="M421.57,375.29a93,93,0,0,0-1.89-21.91c-1.34-6.75-3.44-13.4-7-19.07-7.2-11.36-20.34-15.22-31.85-10.39a24.75,24.75,0,0,0-3,1.51c-.55-1.68-2.26-3-3.91-1.87a22.32,22.32,0,0,0-2.91,2.28,2,2,0,0,0-3.15,0,22.48,22.48,0,0,0-2.4,2.88,2.29,2.29,0,0,0-.59.24A12.82,12.82,0,0,0,359.26,343a3.72,3.72,0,0,0,.2.5,2.72,2.72,0,0,0,3.2,2.52c-2.43,8.2-2.72,17.22-1.72,25.88q.44,3.75,1.15,7.45a2.64,2.64,0,0,0-2.45,3.38c.31,1.22.66,2.41,1,3.61a11.89,11.89,0,0,0,.6,1.89,5.76,5.76,0,0,0,1.41,1.61,1.77,1.77,0,0,0,2.1.12c.15.5.3,1,.46,1.49,1.93,5.93,4.55,11.85,8.59,16.33.09.25.19.49.28.73a2.39,2.39,0,0,0,2.15,1.63,22,22,0,0,0,20.07,4.44,4,4,0,0,0-.22.41,1,1,0,0,0,.23,1.21,3.53,3.53,0,0,0,3,.76,2.54,2.54,0,0,0,2.17-.14c.49-.25,1-.53,1.43-.82a2.54,2.54,0,0,0,1.91-.08c5.08-2.18,8.79-8.62,10.36-14.21a3.46,3.46,0,0,0-.06-2.2C419.18,392.48,421.22,383.94,421.57,375.29ZM392,409.19l.82-.17h.46C392.84,409.09,392.41,409.15,392,409.19Zm6.33-36.49c-.39,1.89-1,4.23-2.86,4.89s-3.69-.7-5-1.89a16.32,16.32,0,0,1-3-3.89,43.24,43.24,0,0,1-1.61-9.68c-.19-4.14,0-9.17,3.35-11.63,3.82-2.15,7.56,1.18,9.05,5.2a22.55,22.55,0,0,1,.95,8.62A53.24,53.24,0,0,1,398.31,372.7Z" transform="translate(-257.88 -141.99)"/><path class="cls-6" d="M360.81,329.07a1.37,1.37,0,0,0-.55-.38,1.28,1.28,0,0,0-.34-.07h-.07a1,1,0,0,0-.57.14.82.82,0,0,0-.33.31,1.19,1.19,0,0,0-.19.33,2.16,2.16,0,0,0-.33.91,1.22,1.22,0,0,0,.26.87.93.93,0,0,0,.9.33.6.6,0,0,0,.35-.22,1.11,1.11,0,0,0,.26,0,1.13,1.13,0,0,0,1-1.12A1.82,1.82,0,0,0,360.81,329.07Z" transform="translate(-257.88 -141.99)"/><path class="cls-4" d="M495.93,447.47q-7.49-.75-15-1.19a3.07,3.07,0,0,0-.43-.59,4.08,4.08,0,0,0-.13-.92c1.13-1.22,1.35-3.57.19-4.7a3,3,0,0,0-2.52-2.94c-22.44-3-45-6-67.64-5.42q-9.07-.16-18.16.19a64.44,64.44,0,0,0-9.52.65q-.63.13-1.26.33c-4.17.26-8.33.56-12.5.93a3.46,3.46,0,0,0-1.52.5,1.75,1.75,0,0,0-.34.15l-.74.07h-.11l-.74.07c-3.09.32-2.64,6.45.49,6.16q5-.45,9.93-.77a8.71,8.71,0,0,0,.36,2.54l-2.78.52c-1.48.29-2.42,2.16-2.1,3.74a2.86,2.86,0,0,0,3.33,2.35c2.22-.28,4.44-.52,6.67-.76a13,13,0,0,0,3.42.9q-5.19,1.06-10.34,2.3a3.21,3.21,0,0,0-2.1,3.74,2.87,2.87,0,0,0,3.33,2.35q9.31-1.21,18.64-2.24c0,.11,0,.22.05.33a2.86,2.86,0,0,0,3.33,2.35c5.18-.77,10.37-1.52,15.54-2.41l2.45-.42A360,360,0,0,1,474,452.37q10.86.35,21.69,1.34C499.25,454,499.49,447.83,495.93,447.47Z" transform="translate(-257.88 -141.99)"/><path class="cls-7" d="M311,265.13c0-2.43-.28-4.79-.39-7.2-.22-4.72-.31-9.72-1.31-14.33a1,1,0,0,0-1.89.19c-.27,3.61,0,7.29,0,10.9,0,3.43-.24,6.82-.33,10.24s-.24,6.84-.37,10.26c-.07,1.82-.16,3.64-.23,5.46,0,.92-.05,1.83,0,2.74,0,.46,0,.92,0,1.37v.15c-1.26,1.52,1.51,3.95,2.91,1.32,1-1.82,1-4.68,1.14-6.74.18-2.39.32-4.77.41-7.17S311.05,267.53,311,265.13Z" transform="translate(-257.88 -141.99)"/><path class="cls-7" d="M343.57,241.26a16.92,16.92,0,0,0-3.75-8.91c-4-5.24-9.85-7.49-15.87-7.61-1.63,0-1.7,2.6-.11,2.82,4.27.61,8.24,3.5,11.22,6.89a22.28,22.28,0,0,1,3.72,5.58c.54,1.22,1.48,4.07.28,5.12a1.16,1.16,0,0,0,.93,2C342.49,246.51,343.76,244.06,343.57,241.26Z" transform="translate(-257.88 -141.99)"/><path class="cls-7" d="M345.1,273.34c-1.86-3.26-5.19-7.13-8.52-8.46-.85-.34-1.55.92-.94,1.65,1.16,1.39,2.52,2.53,3.67,4a31.33,31.33,0,0,1,3,4.81,38.63,38.63,0,0,1,2.26,5.18c.66,1.82,1,3.73,1.6,5.56a1.09,1.09,0,0,0,2.16-.22C348.78,281.6,347.09,276.82,345.1,273.34Z" transform="translate(-257.88 -141.99)"/><path class="cls-7" d="M359.77,282.42c-.51-5.05-1.44-10-1.88-15.08-.29-3.39-.48-6.78-.67-10.17.33-2.81.87-5.59,1.33-8.41.41-2.49-2.54-3.72-3.41-1.24-1.78,5.1-1.37,10.66-.22,15.88.11,1.32.23,2.63.37,3.93a79.75,79.75,0,0,0,2.9,15.49C358.54,283.93,359.89,283.6,359.77,282.42Z" transform="translate(-257.88 -141.99)"/><path class="cls-7" d="M385.87,265.54c0-2.55-.12-5.09-.34-7.62s-.35-5.64-1.62-7.86c-.32-.55-1.3-.68-1.44.14-.41,2.32.1,4.76.29,7.09.21,2.7.33,5.4.31,8.1,0,5.26-.28,10.44-.81,15.66a.71.71,0,0,0,1.38.28A60.39,60.39,0,0,0,385.87,265.54Z" transform="translate(-257.88 -141.99)"/><path class="cls-7" d="M377.18,274.91a.82.82,0,0,0-1.6-.08c-.73,2-.87,4.7-2.57,6.05-.73.58-2.83,1-3.27-.13s-1.8-.38-1.59.66c.3,1.44.7,2.5,2,3.15a4.45,4.45,0,0,0,4,0C377.21,283,377.89,278.23,377.18,274.91Z" transform="translate(-257.88 -141.99)"/><path class="cls-7" d="M368.71,225.3c-2-2.19-5.13-2.84-7.09-.34-.55.7.06,1.95.9,1.43,1.64-1,3.78.33,4.69,1.91,1.29,2.25,1.13,5.17,1.39,7.71a.67.67,0,0,0,1.31.06C370.86,232.61,371.21,228.08,368.71,225.3Z" transform="translate(-257.88 -141.99)"/><path class="cls-7" d="M387.44,228.56a3.76,3.76,0,0,0-6.07.25c-.79,1,.36,2.59,1.31,1.61.39-.41,0-.23.39-.24a2.19,2.19,0,0,1,.81.2,3.74,3.74,0,0,1,1.59,1.12c1.17,1.5,1,3.63,1.45,5.43a.78.78,0,0,0,1.52.08C389.31,234.34,389.3,230.69,387.44,228.56Z" transform="translate(-257.88 -141.99)"/><path class="cls-7" d="M404.48,290.58c-1.28-.33-.63-4.93-.58-5.91.14-3,.14-6,.19-9s-.13-6-.11-9c0-3.22.1-6.45-.12-9.67-.09-1.33-1.65-1.41-1.84-.09-.55,3.75-.73,7.55-1,11.34s-.69,7.77-.95,11.68c-.12,1.84-.22,3.67-.28,5.51a13.5,13.5,0,0,0,.29,4.44c.65,2.1,2.57,4,4.57,2.85C405.42,292.34,405.4,290.82,404.48,290.58Z" transform="translate(-257.88 -141.99)"/><path class="cls-7" d="M436.29,266.51c.14-4.2.08-8.43.07-12.63l0-6.15a25.07,25.07,0,0,0-.21-5.41c-.49-2.15-3.71-3.84-4.49-1a.91.91,0,0,0,1.22,1.15c.95-.49.67,3.15.67,3.75,0,1.59,0,3.19,0,4.78,0,3.19,0,6.38.07,9.57.07,6.22.08,12.54.59,18.73.09,1.1,1.59.85,1.66-.17C436.18,275,436.16,270.7,436.29,266.51Z" transform="translate(-257.88 -141.99)"/><path class="cls-7" d="M422.67,259.86c0-.85-1.09-1.41-1.52-.54-.7,1.42-1.2,2.9-2,4.27A20.12,20.12,0,0,1,416,267.3c-.8.82.12,2.23,1.08,1.72A11.19,11.19,0,0,0,422.67,259.86Z" transform="translate(-257.88 -141.99)"/><path class="cls-7" d="M412.3,251c-.24-4.39-3.26-9.28-6.34-11.8-1.16-.95-2.4.92-1.56,2.08,1.15,1.57,2.29,3.12,3.37,4.76s1.73,3.68,2.76,5.41C411,252.22,412.37,252.19,412.3,251Z" transform="translate(-257.88 -141.99)"/><path class="cls-7" d="M452,297.58c-.48-9.33-.94-18.65-1.52-28-.05-.89-1.28-1-1.26-.06.23,9.31.58,18.62.9,27.93C450.19,298.84,452.08,298.93,452,297.58Z" transform="translate(-257.88 -141.99)"/><path class="cls-7" d="M479,244a10.8,10.8,0,0,0-10.73-6.26c-1.3.12-1.46,2.19-.09,2.33a10.56,10.56,0,0,1,7.86,5.68c1.83,3.5,1.52,7.2.39,10.85-.26.86.8,1.72,1.39,1C480.77,254.07,481,248.19,479,244Z" transform="translate(-257.88 -141.99)"/><path class="cls-7" d="M494.17,283.76a62.11,62.11,0,0,0-.51-7.22c-.25-2.44-.43-5.26-1.45-7.47-.74-1.59-2.63-.86-2.83.71-.3,2.3.17,4.84.25,7.17s-.07,4.6-.11,6.9-.12,4.62-.28,6.92c-.08,1.09-.11,2.18-.1,3.28a4.74,4.74,0,0,0,.23,1.72c.12.32.42.61.42.94a.92.92,0,0,0,1.8.36c.1-.3.46-.48.67-.73a3.81,3.81,0,0,0,.7-1.51,22.05,22.05,0,0,0,.71-3.51A65.73,65.73,0,0,0,494.17,283.76Z" transform="translate(-257.88 -141.99)"/><path class="cls-7" d="M516,246.15a9,9,0,0,0-1.68-1.74,15.21,15.21,0,0,0-2.54-.95,30.82,30.82,0,0,0-5.6-1.54c-3.72-.59-7.47-1.32-11.16-2.13-1.72-.37-2.63,2.39-.87,3s3.46,1.21,5.17,1.95,3.7,1.16,5.5,1.88a31.57,31.57,0,0,0,5.28,1.54c.89.2,1.81.4,2.71.52a5.51,5.51,0,0,0,2.64-.53A1.26,1.26,0,0,0,516,246.15Z" transform="translate(-257.88 -141.99)"/><path class="cls-7" d="M520.32,296.72a14.12,14.12,0,0,0-2.16-2.21,24.14,24.14,0,0,0-2.86-1.76,33.08,33.08,0,0,0-5.74-2.73,1.05,1.05,0,0,0-1,1.72,39,39,0,0,0,5.05,3.94,30.06,30.06,0,0,0,2.59,1.6,11.48,11.48,0,0,0,3.16,1.08A1,1,0,0,0,520.32,296.72Z" transform="translate(-257.88 -141.99)"/><path class="cls-7" d="M512.9,268.14a10.38,10.38,0,0,0-5.11-2,22.92,22.92,0,0,0-5.3-.06c-.95.15-.84,1.62-.08,1.95,1.58.7,3.19,1.22,4.76,1.95a19.55,19.55,0,0,0,4.8,1.46C513.59,271.68,514.12,269,512.9,268.14Z" transform="translate(-257.88 -141.99)"/><path class="cls-7" d="M539.8,250.43c0-1.56.15-3.53-.54-5-.94-1.94-4.06-1.87-4.1.69,0,1,1.48,1.45,1.68.34a64.85,64.85,0,0,0-.44,7.8c-.14,2.81-.34,5.61-.47,8.42-.26,5.6-1.46,11.13-1.68,16.72a1.08,1.08,0,0,0,2.12.43,69.63,69.63,0,0,0,2.1-11.63c.53-4,1-8,1.19-12.09C539.75,254.25,539.79,252.34,539.8,250.43Z" transform="translate(-257.88 -141.99)"/><path class="cls-7" d="M558.53,291.73c-1.53-1.67-3.51-1.6-5.5-1.48-2.47.14-4.84.55-7.31.68s-5.23.34-7.83.72c-1,.15-.73,1.73.15,1.85,3.92.51,7.88.44,11.79.95,1.68.21,3.38.08,5,.43.87.18,2.25.09,2.74,1.08a1,1,0,0,0,1.72.08A3.81,3.81,0,0,0,558.53,291.73Z" transform="translate(-257.88 -141.99)"/><path class="cls-7" d="M319.73,297.48c-4.19-1.67-10-1.8-13,2.41a1.21,1.21,0,0,0,.08,1.52,3,3,0,0,0,1,2.8,9.14,9.14,0,0,0,12.83-2.08C321.81,300.58,321.62,298.23,319.73,297.48Z" transform="translate(-257.88 -141.99)"/><path class="cls-7" d="M299.45,293.87a3.65,3.65,0,0,0-3.12-.69,2,2,0,0,0-1.37,2.14,2.09,2.09,0,0,0,1.24,1.77,1.2,1.2,0,0,0,.28.68,1.51,1.51,0,0,0,1.74.58,2.33,2.33,0,0,0,1.13-.62,2,2,0,0,0,.93-1.46A2.31,2.31,0,0,0,299.45,293.87Z" transform="translate(-257.88 -141.99)"/><path class="cls-7" d="M562.26,271.85a28.09,28.09,0,0,0-4.66-.39c-1.22.05-3,.35-3.86,1.43a1.58,1.58,0,0,0-.26,1.69l.08.12a7.89,7.89,0,0,0-1.94,1.93,2.78,2.78,0,0,0,.68,3.59A8.43,8.43,0,0,0,564.16,276C565,274.13,564.19,272.08,562.26,271.85Z" transform="translate(-257.88 -141.99)"/><path class="cls-7" d="M565.3,265.35a4.3,4.3,0,0,0-2.32-.68,1.33,1.33,0,0,0-1.17.38,1.3,1.3,0,0,0,.05,1.71c.19.22.16.21.39.49a2.11,2.11,0,0,0,.87.55l1.3.57a1.41,1.41,0,0,0,1.79-1A1.68,1.68,0,0,0,565.3,265.35Z" transform="translate(-257.88 -141.99)"/><path class="cls-7" d="M312.75,399.36c-.1-3.44.09-7.4-1-10.67-.24-.78-1.4-1.09-1.62-.08-.76,3.48-.21,7.42,0,11s.77,7.3,1.19,11a.6.6,0,0,0,1.2-.12C312.66,406.73,312.85,403.05,312.75,399.36Z" transform="translate(-257.88 -141.99)"/><path class="cls-7" d="M313.5,346.06a.9.9,0,0,0-1.67-.33c-1.47,3.11-1.56,7.31-1.84,10.75a54.23,54.23,0,0,0,0,11.25c.14,1,1.34.7,1.47-.15.57-3.58.78-7.34,1.12-11C312.94,353.22,313.88,349.46,313.5,346.06Z" transform="translate(-257.88 -141.99)"/><path class="cls-7" d="M344.4,347.74a20.85,20.85,0,0,0-3.52-8.54c-1.67-2.3-4.44-5-7.09-5.65a1.3,1.3,0,0,0-1,2.32c2,1.79,3.9,3,5.43,5.35a20.33,20.33,0,0,1,3.14,7.29c1.18,6.08-.8,11.36-4,16.14a1.1,1.1,0,0,0,1.58,1.51C343.61,362.06,345.5,354.1,344.4,347.74Z" transform="translate(-257.88 -141.99)"/><path class="cls-7" d="M350.93,404.7a102.58,102.58,0,0,0-6.11-14.5c-1.16-2.27-2.34-4.53-3.57-6.76-.57-1-1.18-2.05-1.82-3.05a36.11,36.11,0,0,0-2.48-3.12c-.57-.73-1.49.1-1.18.93.48,1.22.77,2.44,1.33,3.64s1.11,2.29,1.71,3.41q1.79,3.38,3.53,6.78c1.15,2.27,2.37,4.55,3.7,6.68s2.36,4.54,3.66,6.72C350.2,406.27,351.25,405.64,350.93,404.7Z" transform="translate(-257.88 -141.99)"/><path class="cls-7" d="M389.71,379c-3.56-4.34-6.24-8.86-6.91-14.85a26.63,26.63,0,0,1,3.58-16.29c.63-1.11-.75-2.53-1.61-1.53-4,4.69-5.33,11.73-4.7,18.06.6,6.15,3.29,13.25,8.34,16.34A1.1,1.1,0,0,0,389.71,379Z" transform="translate(-257.88 -141.99)"/><path class="cls-7" d="M415,343.69c-2.88-6.05-7.3-11.63-12.94-14.49-.77-.39-1.2.92-.6,1.43A40.5,40.5,0,0,1,413,345.18a39.87,39.87,0,0,1,2.81,9.1c.57,3.16.69,6.37,1.07,9.55a.69.69,0,0,0,1.36.07C419.94,357.3,417.79,349.55,415,343.69Z" transform="translate(-257.88 -141.99)"/><path class="cls-7" d="M410.18,399.08c6.57-7.95,10.76-19.13,9.08-30-.13-.84-1.21-.66-1.28.13-1,11-4.06,21.56-11.27,29.39a2.09,2.09,0,0,0-.2.22c-1.16,1.46.54,3.68,1.86,2.29-.46.58-1.09,1.63-1.71,2.36a16.92,16.92,0,0,0-2.06,2.88c-.51.94.43,2.32,1.35,1.67,1.95-1.38,5.23-4.2,5-7.16A3.23,3.23,0,0,0,410.18,399.08Z" transform="translate(-257.88 -141.99)"/><path class="cls-7" d="M368.51,338.59a2.36,2.36,0,0,0-.38-.1.7.7,0,0,0-.5-.18,3.13,3.13,0,0,0-2.51,1.49c-.53.87-.78,2.44,0,3.21a.85.85,0,0,0,1.34-.22,8.17,8.17,0,0,0,.33-1.14,2.19,2.19,0,0,1,.56-.74,4.09,4.09,0,0,1,.63-.32.94.94,0,0,0,1.1-.68A1.1,1.1,0,0,0,368.51,338.59Z" transform="translate(-257.88 -141.99)"/><path class="cls-7" d="M445.64,399.62c-2.29-1.83-4.83-3.11-7-5.23a31.45,31.45,0,0,1-5.34-7.26,1,1,0,1,0-1.75,1,27.48,27.48,0,0,0,5.65,8.06c2.14,2.12,4.82,4.44,7.69,5A.92.92,0,0,0,445.64,399.62Z" transform="translate(-257.88 -141.99)"/><path class="cls-7" d="M481.12,381.5A59.56,59.56,0,0,0,471.61,368a128.29,128.29,0,0,0-12.94-12.82c-.8-.67-1.87.73-1.13,1.49,3.82,4,7.66,7.93,11.32,12.09a66.44,66.44,0,0,1,9.23,12.59c4.43,8.35,5.39,19.22-.42,27.12a.76.76,0,0,0,1.08,1C486.39,402.78,485.28,390.12,481.12,381.5Z" transform="translate(-257.88 -141.99)"/><path class="cls-7" d="M479.41,337.52a21.07,21.07,0,0,0-12.53-2.78c-.91.07-1,1.59-.07,1.63a25.23,25.23,0,0,1,9.19,2.26,3.69,3.69,0,0,0-.54,2,2.38,2.38,0,0,0-1.29,3.1.66.66,0,0,0,1.08.22c.58-.6.8-1.23,1.69-1.05s1.5-1.39.89-2.13c-.34-.42.17-1.08.59-.9C479.63,340.36,480.59,338.19,479.41,337.52Z" transform="translate(-257.88 -141.99)"/><path class="cls-7" d="M527.31,405.63c-1.52-1.05-3.26-1.83-4.86-2.73S519.18,401,517.6,400a50.57,50.57,0,0,1-4.31-3.33c-1.48-1.28-2.83-3-4.49-4a.91.91,0,0,0-1.21,1.25,15.82,15.82,0,0,0,3.88,4.3,50.92,50.92,0,0,0,4.92,3.92c3.12,2.18,6.8,4.51,10.5,5C527.61,407.21,527.9,406,527.31,405.63Z" transform="translate(-257.88 -141.99)"/><path class="cls-7" d="M552.25,393.47a70.19,70.19,0,0,0-5.8-11.6,80.9,80.9,0,0,0-15.8-18.77c-.95-.82-1.9.91-1,1.73A78.83,78.83,0,0,1,544,382.37a89.73,89.73,0,0,1,5.19,9.92c1.75,4,2.93,7.93,2.08,12.38-.19,1,1,1.84,1.56.83C554.87,401.78,553.69,397.22,552.25,393.47Z" transform="translate(-257.88 -141.99)"/><path class="cls-7" d="M554.23,411.24c-1.28,3.94-4,6.6-6.07,9.92a.8.8,0,0,0,.76,1.22c4.4-.88,6.64-6.32,7.09-10.78A.91.91,0,0,0,554.23,411.24Z" transform="translate(-257.88 -141.99)"/><path class="cls-7" d="M541.7,424.36l-4.24,2.58c-.41.26-.08,1,.34.74l4.26-2.55C542.5,424.86,542.13,424.09,541.7,424.36Z" transform="translate(-257.88 -141.99)"/><path class="cls-7" d="M548.84,346.09c-3.29-4.34-8.38-7.35-12.9-9.76a36.34,36.34,0,0,0-7.5-3.14c-2.5-.67-5-1.7-7.61-1.77-1.1,0-1.34,1.67-.34,2.1,2.32,1,4.84,1.39,7.14,2.49s4.63,2.1,6.9,3.28a61.56,61.56,0,0,1,6.69,4.11c1.08.76,2.13,1.58,3.19,2.39-.14.5.29,1.18.85,1.07a2.47,2.47,0,0,1,.55,0c.55.39,1.11.78,1.68,1.13C548.62,348.66,549.7,347,548.84,346.09Z" transform="translate(-257.88 -141.99)"/><path class="cls-7" d="M368.33,384.14a5.76,5.76,0,0,1,.05-2.19c.36-1.47-1.55-2.18-2-.73a7.36,7.36,0,0,0-.29,3.2,3.91,3.91,0,0,0,1.38,2.62.81.81,0,0,0,1.24-.72A15,15,0,0,0,368.33,384.14Z" transform="translate(-257.88 -141.99)"/><path class="cls-7" d="M478.5,443c-5.25-1.19-10.58-1.33-15.87-2.11a102.8,102.8,0,0,0-16.27-.61,281.46,281.46,0,0,0-32.16,2.25c-4.08.53-8.11,1.23-12.13,2.06.28-.23.55-.47.83-.69.81-.67.24-2.31-.73-2.28-3.86.1-7.71.22-11.57.36-1.23,0-1.35,2.16-.09,2.17l7.76.07L395.75,446a1.62,1.62,0,0,0,1,3c10.51-1.37,21.09-2.56,31.65-3.28s21.11-.74,31.67-.71c3,0,6-.09,9.06-.06s6,.16,9.06.05C479.14,445,479.59,443.19,478.5,443Z" transform="translate(-257.88 -141.99)"/></svg>