<svg width="944" height="180" viewBox="0 0 944 180" fill="none" xmlns="http://www.w3.org/2000/svg">
<g clip-path="url(#clip0)">
<path d="M425.57 90L422.13 73.746C420.668 66.694 419.722 62.738 411.896 60.674V60.502C419.894 58.524 423.936 54.224 423.936 45.624C423.936 34.358 414.734 30.66 405.016 30.66H390.31V90H397.018V63.598H403.21C412.584 63.598 414.218 68.156 415.938 76.326L418.862 90H425.57ZM417.228 46.312C417.228 56.202 408.8 58.008 400.716 58.008H397.018V36.25H402.006C409.66 36.25 417.228 36.508 417.228 46.312ZM463.591 65.662V63.684C463.591 54.654 458.861 48.118 449.315 48.118C437.275 48.118 433.319 57.492 433.319 68.156C433.319 81.4 439.081 90.946 453.271 90.946C456.453 90.946 459.635 90.688 462.645 89.742V84.926C459.893 85.614 457.399 86.044 454.561 86.044C444.499 86.044 440.027 77.014 440.027 68.07V65.662H463.591ZM456.883 60.76H440.457C441.317 56.288 444.241 53.02 449.057 53.02C453.529 53.02 456.883 56.288 456.883 60.76ZM501.976 90.086V49.064H496.128V55.772H495.956C494.666 50.956 490.108 48.118 485.292 48.118C474.112 48.118 471.274 60.932 471.274 69.79C471.274 78.992 473.854 90 485.12 90C490.194 90 494.408 87.076 495.956 82.174H496.128V89.398C496.128 98.17 493.204 102.986 483.744 102.986C480.132 102.986 476.778 102.126 473.51 100.578V106.512C477.294 107.286 480.648 107.888 484.604 107.888C496.386 107.888 501.976 101.696 501.976 90.086ZM496.128 68.758C496.128 74.606 493.806 85.098 486.324 85.098C479.014 85.098 477.982 75.294 477.982 69.876C477.982 64.544 479.014 53.02 486.496 53.02C493.806 53.02 496.128 63.082 496.128 68.758ZM522.999 38.4V30.66H515.259V38.4H522.999ZM522.053 90V49.064H516.205V90H522.053ZM567.049 69.618C567.049 58.524 562.921 48.118 550.193 48.118C537.551 48.118 533.509 58.61 533.509 69.618C533.509 80.626 537.551 90.946 550.193 90.946C562.921 90.946 567.049 80.712 567.049 69.618ZM560.341 69.532C560.341 76.154 558.793 86.044 550.193 86.044C541.679 86.044 540.217 76.068 540.217 69.532C540.217 62.996 541.679 53.02 550.193 53.02C558.707 53.02 560.341 62.91 560.341 69.532ZM607.163 90V60.76C607.163 54.31 603.895 48.118 596.671 48.118C589.533 48.118 585.921 52.246 583.857 58.524H583.685V49.064H577.837V90H583.685V73.144C583.685 66.694 587.125 53.966 595.295 53.966C602.003 53.966 601.315 62.652 601.315 67.296V90H607.163ZM674.827 74.262C674.827 65.404 669.237 61.706 662.271 57.922L656.767 54.912C652.639 52.676 646.877 49.752 646.877 44.334C646.877 37.97 652.381 35.304 658.057 35.304C662.357 35.304 667.087 36.25 671.043 37.884V31.262C666.915 30.402 662.873 29.714 658.659 29.714C648.941 29.714 639.567 33.842 639.567 44.936C639.567 53.536 645.845 56.718 652.381 60.33L657.627 63.254C662.701 66.092 667.517 68.586 667.517 75.208C667.517 82.432 661.067 85.356 654.703 85.356C649.715 85.356 644.813 84.152 640.255 82.26V89.14C644.727 90.172 649.285 90.946 653.929 90.946C664.851 90.946 674.827 86.732 674.827 74.262ZM704.191 53.966V49.064H693.183V35.82L687.335 39.518V49.064H680.627V53.966H687.335V80.368C687.335 88.28 691.033 90.946 698.687 90.946C700.407 90.946 702.127 90.774 703.847 90.516V85.27C702.385 85.786 701.525 86.044 699.891 86.044C695.247 86.044 693.183 83.55 693.183 79.164V53.966H704.191ZM742.032 90V49.064H736.184V65.92C736.184 72.37 732.83 85.098 724.66 85.098C717.952 85.098 718.64 76.412 718.64 71.768V49.064H712.792V78.304C712.792 84.84 716.06 90.946 723.284 90.946C730.336 90.946 734.12 86.818 736.012 80.54H736.184V90H742.032ZM775.83 53.966V49.064H764.822V35.82L758.974 39.518V49.064H752.266V53.966H758.974V80.368C758.974 88.28 762.672 90.946 770.326 90.946C772.046 90.946 773.766 90.774 775.486 90.516V85.27C774.024 85.786 773.164 86.044 771.53 86.044C766.886 86.044 764.822 83.55 764.822 79.164V53.966H775.83ZM804.469 53.966V49.064H793.461V35.82L787.613 39.518V49.064H780.905V53.966H787.613V80.368C787.613 88.28 791.311 90.946 798.965 90.946C800.685 90.946 802.405 90.774 804.125 90.516V85.27C802.663 85.786 801.803 86.044 800.169 86.044C795.525 86.044 793.461 83.55 793.461 79.164V53.966H804.469ZM841.105 90.086V49.064H835.257V55.772H835.085C833.795 50.956 829.237 48.118 824.421 48.118C813.241 48.118 810.403 60.932 810.403 69.79C810.403 78.992 812.983 90 824.249 90C829.323 90 833.537 87.076 835.085 82.174H835.257V89.398C835.257 98.17 832.333 102.986 822.873 102.986C819.261 102.986 815.907 102.126 812.639 100.578V106.512C816.423 107.286 819.777 107.888 823.733 107.888C835.515 107.888 841.105 101.696 841.105 90.086ZM835.257 68.758C835.257 74.606 832.935 85.098 825.453 85.098C818.143 85.098 817.111 75.294 817.111 69.876C817.111 64.544 818.143 53.02 825.625 53.02C832.935 53.02 835.257 63.082 835.257 68.758ZM880.962 90V61.276C880.962 52.16 876.49 48.118 867.202 48.118C859.892 48.118 852.668 51.3 852.496 59.556H859.032C859.634 54.654 862.558 53.02 867.374 53.02C875.544 53.02 875.114 59.556 875.114 65.662V66.522C873.738 66.78 872.448 66.78 871.072 66.78C863.504 66.78 851.55 70.134 851.55 79.508C851.55 86.474 855.506 90.946 862.558 90.946C867.116 90.946 872.878 88.882 875.114 84.582H875.286V90H880.962ZM875.114 71.424C875.114 74.864 874.942 76.584 873.566 79.68C871.846 83.378 868.148 86.044 864.02 86.044C860.579 86.044 858.258 83.55 858.258 80.11C858.258 73.574 866.428 71.424 871.674 71.424H875.114ZM914.32 54.396V48.118C907.784 48.118 903.226 51.042 900.646 56.976H900.474V49.064H894.626V90H900.474V73.058C900.474 64.114 903.742 54.396 914.32 54.396ZM941.447 53.966V49.064H930.439V35.82L924.591 39.518V49.064H917.883V53.966H924.591V80.368C924.591 88.28 928.289 90.946 935.943 90.946C937.663 90.946 939.383 90.774 941.103 90.516V85.27C939.641 85.786 938.781 86.044 937.147 86.044C932.503 86.044 930.439 83.55 930.439 79.164V53.966H941.447Z" fill="black"/>
<path fill-rule="evenodd" clip-rule="evenodd" d="M357.99 180L177.872 179.998C198.21 122.045 198.261 58.0287 177.868 0L360 0.00211668V180" fill="#003366"/>
<path fill-rule="evenodd" clip-rule="evenodd" d="M337.563 33.2232C339.001 31.6191 338.864 30.3189 337.259 30.3189H329.376C327.773 30.3189 326.968 30.1452 324.386 32.7251L302.371 56.5597L302.311 33.2232C302.311 31.6191 301.01 30.3189 299.404 30.3189H294.053C292.448 30.3189 291.145 31.6191 291.145 33.2232L291.143 86.2382C291.143 87.8403 292.444 89.1405 294.049 89.1405H299.425C301.03 89.1405 302.331 87.8403 302.331 86.2382L302.336 72.3757L312.116 61.8145L327.216 86.2382C328.199 87.8403 329.578 89.1405 331.184 89.1405H339.249C340.856 89.1405 341.361 87.8403 340.378 86.2382L319.55 53.5168L337.563 33.2232Z" fill="white"/>
<path fill-rule="evenodd" clip-rule="evenodd" d="M208.431 86.2357C208.431 87.8398 209.732 89.1401 211.335 89.1401H217.216C218.823 89.1401 220.124 87.8398 220.124 86.2357L220.149 33.2228C220.149 31.6186 218.848 30.3184 217.243 30.3184H211.366C209.759 30.3184 208.46 31.6186 208.46 33.2228L208.431 86.2357Z" fill="white"/>
<path fill-rule="evenodd" clip-rule="evenodd" d="M267.332 33.2228C267.332 31.6186 268.633 30.3184 270.238 30.3184H276.048C277.656 30.3184 278.957 31.6186 278.957 33.2228L278.949 86.2377C278.949 87.8398 277.647 89.1401 276.042 89.1401H270.271C268.666 89.1401 267.365 87.8398 267.365 86.2377L267.344 64.4H243.957L243.961 86.2377C243.961 87.8398 242.662 89.1401 241.055 89.1401H235.246C233.641 89.1401 232.34 87.8398 232.34 86.2377L232.342 33.2228C232.342 31.6186 233.643 30.3184 235.248 30.3184H241.075C242.678 30.3184 243.982 31.6186 243.982 33.2228L243.957 54.5499H267.344L267.332 33.2228Z" fill="white"/>
<path fill-rule="evenodd" clip-rule="evenodd" d="M180.433 0L0 0.00211668V180L180.431 179.998C200.802 122.045 200.857 58.0287 180.433 0Z" fill="#CCD7E6"/>
</g>
<defs>
<clipPath id="clip0">
<rect width="944" height="180" fill="white"/>
</clipPath>
</defs>
</svg>
