<?xml version="1.0" encoding="UTF-8" standalone="no"?>
<svg
   xmlns:dc="http://purl.org/dc/elements/1.1/"
   xmlns:cc="http://creativecommons.org/ns#"
   xmlns:rdf="http://www.w3.org/1999/02/22-rdf-syntax-ns#"
   xmlns:svg="http://www.w3.org/2000/svg"
   xmlns="http://www.w3.org/2000/svg"
   viewBox="0 0 791.25 147.5"
   height="147.5"
   width="791.25"
   xml:space="preserve"
   version="1.1"
   id="svg2"><metadata
     id="metadata8"><rdf:RDF><cc:Work
         rdf:about=""><dc:format>image/svg+xml</dc:format><dc:type
           rdf:resource="http://purl.org/dc/dcmitype/StillImage" /></cc:Work></rdf:RDF></metadata><defs
     id="defs6" /><g
     transform="matrix(1.25,0,0,-1.25,0,147.5)"
     id="g10"><g
       transform="scale(0.1,0.1)"
       id="g12"><path
         id="path14"
         style="fill:#073070;fill-opacity:1;fill-rule:nonzero;stroke:none"
         d="m 1856,770.547 0,372.363 -59.57,0 0,-153.887 -175.98,0 0,153.887 -60.14,0 0,-372.363 60.14,0 0,167.168 175.98,0 0,-167.168 59.57,0" /><path
         id="path16"
         style="fill:#073070;fill-opacity:1;fill-rule:nonzero;stroke:none"
         d="m 2159.3,770.547 c -1.08,23.183 -1.66,51.308 -1.66,75.039 l 0,111.973 c 0,56.271 -23.15,92.671 -107,92.671 -35.33,0 -69.53,-7.71 -96.54,-18.2 l 5.51,-50.194 c 23.16,14.336 56.27,22.074 81.64,22.074 43.05,0 57.38,-17.66 57.38,-51.859 l 0,-17.656 c -98.75,0 -161.64,-36.407 -161.64,-99.297 0,-43.575 29.79,-70.059 76.68,-70.059 43.58,0 77.78,24.277 91.02,56.816 l 0.54,-0.546 c -2.18,-14.903 -2.73,-33.106 -2.73,-50.762 l 56.8,0 z m -60.67,118.613 c 0,-39.18 -27.05,-77.773 -67.3,-77.773 -23.17,0 -37.52,13.222 -37.52,33.652 0,23.711 18.77,49.629 104.82,49.629 l 0,-5.508" /><path
         id="path18"
         style="fill:#073070;fill-opacity:1;fill-rule:nonzero;stroke:none"
         d="m 2478.63,770.547 0,191.973 c 0,48.55 -19.27,87.71 -81.64,87.71 -46.33,0 -79.41,-24.25 -95.43,-59.566 l -0.54,0.547 c 2.75,15.449 3.84,39.159 3.84,53.519 l -56.25,0 0,-274.183 59.03,0 0,132.422 c 0,54.59 30.33,98.181 71.72,98.181 31.42,0 40.82,-19.861 40.82,-54.06 l 0,-176.543 58.45,0" /><path
         id="path20"
         style="fill:#073070;fill-opacity:1;fill-rule:nonzero;stroke:none"
         d="m 2792.54,770.547 0,402.713 -58.46,0 0,-126.33 c -14.92,1.1 -28.14,2.21 -41.38,2.21 -88.81,0 -143.44,-60.683 -143.44,-155.019 0,-79.433 33.65,-129.082 100.95,-129.082 42.49,0 74.48,23.164 89.38,56.816 l 1.09,0 c -2.73,-15.449 -3.86,-36.953 -3.86,-51.308 l 55.72,0 z m -58.46,141.777 c 0,-46.875 -24.28,-98.73 -67.85,-98.73 -37.52,0 -54.61,30.879 -54.61,86.054 0,73.907 31.99,102.602 78.87,102.602 14.33,0 28.67,-1.66 43.59,-4.965 l 0,-84.961" /><path
         id="path22"
         style="fill:#073070;fill-opacity:1;fill-rule:nonzero;stroke:none"
         d="m 3274.53,1044.73 -61.23,0 -38.07,-129.632 c -8.28,-27.598 -13.78,-49.102 -19.29,-74.493 l -0.57,0 c -5.51,23.731 -11.01,44.141 -21.5,77.247 l -41.37,126.878 -59.59,0 -40.82,-129.085 c -7.17,-23.731 -13.79,-47.989 -19.3,-75.04 l -0.54,0 c -5.53,24.844 -13.27,50.762 -20.41,76.7 l -36.43,127.425 -64.55,0 84.41,-274.183 62.35,0 41.36,132.422 c 7.17,23.144 13.25,44.668 18.77,68.945 l 0.55,0 c 4.94,-20.957 9.92,-39.726 16,-57.93 l 47.44,-143.437 65.08,0 87.71,274.183" /><path
         id="path24"
         style="fill:#073070;fill-opacity:1;fill-rule:nonzero;stroke:none"
         d="m 3547.66,931.641 c 0,65.078 -33.66,118.589 -112,118.589 -79.98,0 -125.21,-61.773 -125.21,-144.527 0,-96.523 46.87,-140.664 132.4,-140.664 33.63,0 67.29,6.074 94.86,17.656 l -5.5,46.895 c -22.62,-11.055 -51.88,-17.656 -80,-17.656 -54.61,0 -82.74,28.671 -81.08,92.109 l 174.87,0 c 1.11,10.488 1.66,19.863 1.66,27.598 z m -59.03,13.789 -116.4,0 c 4.96,36.953 28.12,61.23 61.23,61.23 34.74,0 56.27,-23.711 55.17,-61.23" /><path
         id="path26"
         style="fill:#073070;fill-opacity:1;fill-rule:nonzero;stroke:none"
         d="m 3765.47,1050.23 c -51.33,4.98 -78.91,-29.21 -91.04,-66.187 l -1.09,0 c 3.85,20.977 5.51,45.237 5.51,60.687 l -56.27,0 0,-274.183 59.02,0 0,111.445 c 0,82.188 26.49,120.258 81.1,110.332 l 2.77,57.906" /><path
         id="path28"
         style="fill:#073070;fill-opacity:1;fill-rule:nonzero;stroke:none"
         d="m 4054.43,770.547 -109.22,148.965 101.51,125.218 -72.27,0 -88.81,-117.503 0,246.033 -59.02,0 0,-402.713 59.02,0 0,139.023 93.77,-139.023 75.02,0" /><path
         id="path30"
         style="fill:#073070;fill-opacity:1;fill-rule:nonzero;stroke:none"
         d="m 4275.06,853.848 c 0,91.035 -121.37,64.004 -121.37,116.953 0,20.976 16,34.219 48.56,34.219 17.63,0 36.95,-2.77 53.49,-7.735 l 1.66,47.985 c -16.54,2.76 -35.29,4.96 -51.29,4.96 -74.49,0 -113.1,-37.52 -113.1,-84.937 0,-94.902 120.27,-61.777 120.27,-116.953 0,-22.617 -22.07,-36.406 -54.06,-36.406 -20.96,0 -42.48,3.847 -59.59,8.828 l -1.64,-50.215 c 17.09,-3.301 37.5,-5.508 57.91,-5.508 73.38,0 119.16,37.5 119.16,88.809" /><path
         id="path32"
         style="fill:#073070;fill-opacity:1;fill-rule:nonzero;stroke:none"
         d="m 4579,770.547 -109.23,148.965 101.5,125.218 -72.25,0 -88.82,-117.503 0,246.033 -59.03,0 0,-402.713 59.03,0 0,139.023 93.78,-139.023 75.02,0" /><path
         id="path34"
         style="fill:#073070;fill-opacity:1;fill-rule:nonzero;stroke:none"
         d="m 4837.13,770.547 c -1.09,23.183 -1.66,51.308 -1.66,75.039 l 0,111.973 c 0,56.271 -23.17,92.671 -107.01,92.671 -35.32,0 -69.51,-7.71 -96.55,-18.2 l 5.53,-50.194 c 23.17,14.336 56.27,22.074 81.62,22.074 43.05,0 57.39,-17.66 57.39,-51.859 l 0,-17.656 c -98.74,0 -161.65,-36.407 -161.65,-99.297 0,-43.575 29.81,-70.059 76.7,-70.059 43.58,0 77.78,24.277 91.02,56.816 l 0.55,-0.546 c -2.21,-14.903 -2.76,-33.106 -2.76,-50.762 l 56.82,0 z m -60.68,118.613 c 0,-39.18 -27.04,-77.773 -67.31,-77.773 -23.16,0 -37.5,13.222 -37.5,33.652 0,23.711 18.75,49.629 104.81,49.629 l 0,-5.508" /><path
         id="path36"
         style="fill:#073070;fill-opacity:1;fill-rule:nonzero;stroke:none"
         d="m 5321.89,770.547 0,189.219 c 0,62.344 -29.21,90.464 -81.62,90.464 -49.64,0 -79.98,-32.53 -91.58,-59.019 -4.41,24.279 -22.05,59.019 -76.13,59.019 -42.42,0 -76.62,-23.14 -92.62,-59.566 l -1.09,0.547 c 2.75,16.019 3.85,39.159 3.85,53.519 l -56.27,0 0,-274.183 59.04,0 0,131.308 c 0,57.364 32.54,99.295 70.06,99.295 33.04,0 39.67,-24.275 39.67,-55.173 l 0,-175.43 57.91,0 0,131.308 c 0,60.118 35.31,99.295 70.6,99.295 31.45,0 39.73,-21.521 39.73,-55.72 l 0,-174.883 58.45,0" /><path
         id="path38"
         style="fill:#073070;fill-opacity:1;fill-rule:nonzero;stroke:none"
         d="m 5800.68,770.547 0,189.219 c 0,62.344 -29.25,90.464 -81.66,90.464 -49.63,0 -80,-32.53 -91.58,-59.019 -4.39,24.279 -22.03,59.019 -76.11,59.019 -42.48,0 -76.68,-23.14 -92.66,-59.566 l -1.09,0.547 c 2.75,16.019 3.85,39.159 3.85,53.519 l -56.29,0 0,-274.183 59.06,0 0,131.308 c 0,57.364 32.5,99.295 70.06,99.295 33.06,0 39.69,-24.275 39.69,-55.173 l 0,-175.43 57.91,0 0,131.308 c 0,60.118 35.33,99.295 70.6,99.295 31.49,0 39.77,-21.521 39.77,-55.72 l 0,-174.883 58.45,0" /><path
         id="path40"
         style="fill:#073070;fill-opacity:1;fill-rule:nonzero;stroke:none"
         d="m 6104.55,931.641 c 0,65.078 -33.63,118.589 -111.97,118.589 -80,0 -125.22,-61.773 -125.22,-144.527 0,-96.523 46.86,-140.664 132.39,-140.664 33.65,0 67.3,6.074 94.9,17.656 l -5.51,46.895 c -22.66,-11.055 -51.87,-17.656 -80,-17.656 -54.61,0 -82.77,28.671 -81.11,92.109 l 174.9,0 c 1.11,10.488 1.62,19.863 1.62,27.598 z m -59,13.789 -116.41,0 c 4.96,36.953 28.16,61.23 61.21,61.23 34.81,0 56.29,-23.711 55.2,-61.23" /><path
         id="path42"
         style="fill:#073070;fill-opacity:1;fill-rule:nonzero;stroke:none"
         d="m 6322.36,1050.23 c -51.29,4.98 -78.88,-29.21 -91.01,-66.187 l -1.1,0 c 3.83,20.977 5.49,45.237 5.49,60.687 l -56.25,0 0,-274.183 59.01,0 0,111.445 c 0,82.188 26.5,120.258 81.11,110.332 l 2.75,57.906" /><path
         id="path44"
         style="fill:#8397b7;fill-opacity:1;fill-rule:nonzero;stroke:none"
         d="m 7.5,502.051 0.01953,356.562 291.91447,291.937 356.582,0 0,-271.839 -72.891,-0.02 -303.77,-303.75 0,-72.89 -271.855,0" /><path
         id="path46"
         style="fill:#073070;fill-opacity:1;fill-rule:nonzero;stroke:none"
         d="m 737.422,1150.55 271.838,-271.859 0,-449.707 -280.197,-280.195 -449.727,0 L 7.5,420.645 l 437.91,0 292.012,291.972 0,437.933" /><path
         id="path48"
         style="fill:#073070;fill-opacity:1;fill-rule:nonzero;stroke:none"
         d="m 1730.35,146.25 -115.86,161.133 -2.77,0 0,-161.133 -60.14,0 0,372.461 c 27.05,1.641 57.95,2.187 99.88,2.187 77.23,0 130.22,-27.031 130.22,-100.957 0,-59.589 -44.69,-97.675 -105.39,-104.277 10.49,-13.262 22.07,-27.598 31.44,-39.746 l 98.23,-129.668 -75.61,0 z m -87.17,325.547 c -11.58,0 -22.61,-0.547 -31.46,-1.094 l 0,-118.086 c 5.53,-0.547 16.01,-1.094 29.26,-1.094 48.55,0 77.79,24.825 77.79,61.778 0,40.84 -25.37,58.496 -75.59,58.496" /><path
         id="path50"
         style="fill:#073070;fill-opacity:1;fill-rule:nonzero;stroke:none"
         d="m 2071.33,279.785 -174.92,0 c -1.66,-63.457 26.48,-92.148 81.13,-92.148 28.14,0 57.36,6.621 79.98,17.656 l 5.53,-46.914 c -27.6,-11.563 -61.23,-17.637 -94.91,-17.637 -85.52,0 -132.42,44.141 -132.42,140.703 0,82.754 45.24,144.571 125.24,144.571 78.36,0 112.03,-53.536 112.03,-118.633 0,-7.735 -0.55,-17.11 -1.66,-27.598 z m -112.56,102.637 c -33.11,0 -56.29,-24.277 -61.25,-61.25 l 116.43,0 c 1.09,37.519 -20.41,61.25 -55.18,61.25" /><path
         id="path52"
         style="fill:#073070;fill-opacity:1;fill-rule:nonzero;stroke:none"
         d="m 2242.36,5 c -71.73,0 -116.42,27.6172 -116.42,80.5469 0,30.9181 20.41,56.8361 44.14,68.9841 -16.56,8.282 -27.05,22.637 -27.05,40.84 0,19.863 12.15,38.613 31.46,46.895 -27.05,14.902 -40.84,43.047 -40.84,77.246 0,57.949 44.14,106.504 122.5,106.504 16.56,0 30.35,-2.207 45.24,-5.528 l 92.69,0 0,-46.347 -41.93,0 c 11.6,-9.395 18.77,-25.938 18.77,-45.801 0,-59.59 -41.39,-101.524 -118.63,-101.524 -10.49,0 -23.17,1.094 -31.45,2.754 -11.05,-4.394 -16,-12.675 -16,-20.41 0,-13.789 12.13,-19.316 45.24,-19.316 l 46.89,0 c 59.61,0 93.24,-28.145 93.24,-79.453 C 2390.21,51.8945 2330.64,5 2242.36,5 Z m 38.62,136.836 -51.33,0 c -4.94,0 -10.47,0 -14.88,0.547 -18.75,-10.449 -30.36,-27.012 -30.36,-45.7814 0,-29.2383 27.6,-45.8008 67.31,-45.8008 51.33,0 80.02,22.0508 80.02,51.8752 0,23.73 -16,39.16 -50.76,39.16 z m -27.6,240.586 c -39.16,0 -62.34,-23.731 -62.34,-57.402 0,-35.84 22.07,-56.817 61.79,-56.817 36.97,0 61.25,20.41 61.25,56.27 0,36.425 -22.62,57.949 -60.7,57.949" /><path
         id="path54"
         style="fill:#073070;fill-opacity:1;fill-rule:nonzero;stroke:none"
         d="m 2492.85,461.309 c -20.96,0 -38.06,16.562 -38.06,36.972 0,20.43 17.1,36.973 38.06,36.973 20.43,0 37.52,-15.996 37.52,-36.973 0,-20.41 -17.09,-36.972 -37.52,-36.972 z m -29.78,-315.059 0,274.238 59.02,0 0,-274.238 -59.02,0" /><path
         id="path56"
         style="fill:#073070;fill-opacity:1;fill-rule:nonzero;stroke:none"
         d="m 2719.08,140.742 c -76.15,0 -125.82,42.481 -125.82,139.043 0,82.754 53.54,146.231 136.86,146.231 73.38,0 125.25,-40.86 125.25,-137.403 0,-84.433 -55.17,-147.871 -136.29,-147.871 z m 6.06,235.606 c -35.86,0 -70.63,-27.598 -70.63,-90.489 0,-61.796 24.28,-94.355 70.08,-94.355 38.09,0 70.08,29.805 70.08,93.242 0,58.496 -22.62,91.602 -69.53,91.602" /><path
         id="path58"
         style="fill:#073070;fill-opacity:1;fill-rule:nonzero;stroke:none"
         d="m 3099.24,146.25 0,176.563 c 0,34.218 -9.4,54.082 -40.86,54.082 -41.37,0 -71.72,-43.575 -71.72,-98.223 l 0,-132.422 -59.04,0 0,274.238 56.29,0 c 0,-14.336 -1.1,-38.066 -3.87,-53.535 l 0.57,-0.547 c 15.99,35.332 49.1,59.61 95.43,59.61 62.36,0 81.67,-39.2 81.67,-87.735 l 0,-192.031 -58.47,0" /><path
         id="path60"
         style="fill:#073070;fill-opacity:1;fill-rule:nonzero;stroke:none"
         d="m 3446.27,140.742 c -27.05,0 -53.52,3.301 -75.06,8.828 l 3.32,56.817 c 20.96,-7.715 50.22,-13.789 77.25,-13.789 40.84,0 73.94,17.109 73.94,57.382 0,78.36 -162.77,45.254 -162.77,165.547 0,63.985 50.21,108.692 136.84,108.692 22.07,0 44.7,-2.774 67.32,-6.621 l -3.32,-53.516 c -21.52,6.621 -45.24,10.488 -67.31,10.488 -46.34,0 -70.07,-21.543 -70.07,-52.422 0,-74.492 162.77,-46.914 162.77,-163.339 0,-68.418 -54.08,-118.067 -142.91,-118.067" /><path
         id="path62"
         style="fill:#073070;fill-opacity:1;fill-rule:nonzero;stroke:none"
         d="m 3754.14,141.289 c -58.48,0 -76.13,22.617 -76.13,83.887 l 0,149.512 -52.42,0 0,45.8 52.42,0 0,87.168 58.47,15.996 0,-103.164 72.29,0 0,-45.8 -71.72,0 0,-131.309 c 0,-40.84 8.28,-51.875 35.84,-51.875 12.15,0 25.39,1.66 35.88,4.414 l 0,-48.555 c -16,-3.32 -36.43,-6.074 -54.63,-6.074" /><path
         id="path64"
         style="fill:#073070;fill-opacity:1;fill-rule:nonzero;stroke:none"
         d="m 4054.3,146.25 c 0,14.355 1.09,38.066 3.86,53.535 l -0.56,0.547 c -16,-35.312 -49.1,-59.59 -95.45,-59.59 -62.35,0 -81.66,39.18 -81.66,87.715 l 0,192.031 58.47,0 0,-176.562 c 0,-34.219 9.4,-54.082 40.84,-54.082 41.39,0 71.74,43.594 71.74,98.222 l 0,132.422 59.05,0 0,-274.238 -56.29,0" /><path
         id="path66"
         style="fill:#073070;fill-opacity:1;fill-rule:nonzero;stroke:none"
         d="m 4292.64,141.289 c -58.48,0 -76.14,22.617 -76.14,83.887 l 0,149.512 -52.42,0 0,45.8 52.42,0 0,87.168 58.5,15.996 0,-103.164 72.29,0 0,-45.8 -71.74,0 0,-131.309 c 0,-40.84 8.28,-51.875 35.86,-51.875 12.14,0 25.37,1.66 35.88,4.414 l 0,-48.555 c -16.02,-3.32 -36.43,-6.074 -54.65,-6.074" /><path
         id="path68"
         style="fill:#073070;fill-opacity:1;fill-rule:nonzero;stroke:none"
         d="m 4506.72,141.289 c -58.48,0 -76.13,22.617 -76.13,83.887 l 0,149.512 -52.43,0 0,45.8 52.43,0 0,87.168 58.47,15.996 0,-103.164 72.29,0 0,-45.8 -71.72,0 0,-131.309 c 0,-40.84 8.28,-51.875 35.86,-51.875 12.13,0 25.37,1.66 35.86,4.414 l 0,-48.555 c -16.02,-3.32 -36.43,-6.074 -54.63,-6.074" /><path
         id="path70"
         style="fill:#073070;fill-opacity:1;fill-rule:nonzero;stroke:none"
         d="M 4727.42,5 C 4655.68,5 4611,32.6172 4611,85.5469 c 0,30.9181 20.41,56.8361 44.14,68.9841 -16.55,8.282 -27.03,22.637 -27.03,40.84 0,19.863 12.14,38.613 31.44,46.895 -27.03,14.902 -40.82,43.047 -40.82,77.246 0,57.949 44.14,106.504 122.48,106.504 16.56,0 30.35,-2.207 45.25,-5.528 l 92.7,0 0,-46.347 -41.93,0 c 11.6,-9.395 18.75,-25.938 18.75,-45.801 0,-59.59 -41.37,-101.524 -118.64,-101.524 -10.46,0 -23.16,1.094 -31.44,2.754 -11.04,-4.394 -16,-12.675 -16,-20.41 0,-13.789 12.13,-19.316 45.26,-19.316 l 46.89,0 c 59.59,0 93.24,-28.145 93.24,-79.453 C 4875.29,51.8945 4815.7,5 4727.42,5 Z m 38.62,136.836 -51.31,0 c -4.96,0 -10.47,0 -14.91,0.547 -18.75,-10.449 -30.35,-27.012 -30.35,-45.7814 0,-29.2383 27.6,-45.8008 67.35,-45.8008 51.29,0 80,22.0508 80,51.8752 0,23.73 -16,39.16 -50.78,39.16 z m -27.58,240.586 c -39.18,0 -62.35,-23.731 -62.35,-57.402 0,-35.84 22.07,-56.817 61.78,-56.817 36.99,0 61.27,20.41 61.27,56.27 0,36.425 -22.62,57.949 -60.7,57.949" /><path
         id="path72"
         style="fill:#073070;fill-opacity:1;fill-rule:nonzero;stroke:none"
         d="m 5092.6,146.25 c 0,17.656 0.54,35.859 2.75,50.781 l -0.55,0.547 c -13.26,-32.558 -47.46,-56.836 -91.05,-56.836 -46.89,0 -76.7,26.485 -76.7,70.078 0,62.891 62.91,99.317 161.68,99.317 l 0,17.656 c 0,34.199 -14.35,51.875 -57.4,51.875 -25.37,0 -58.48,-7.734 -81.64,-22.07 l -5.53,50.195 c 27.03,10.488 61.23,18.223 96.56,18.223 83.87,0 107.05,-36.426 107.05,-92.696 l 0,-112.011 c 0,-23.731 0.55,-51.875 1.66,-75.059 l -56.83,0 z m -3.87,124.16 c -86.07,0 -104.84,-25.937 -104.84,-49.668 0,-20.41 14.35,-33.652 37.52,-33.652 40.29,0 67.32,38.613 67.32,77.793 l 0,5.527" /><path
         id="path74"
         style="fill:#073070;fill-opacity:1;fill-rule:nonzero;stroke:none"
         d="m 5383.36,368.066 c -54.61,9.942 -81.11,-28.144 -81.11,-110.351 l 0,-111.465 -59.01,0 0,274.238 56.25,0 c 0,-15.449 -1.66,-39.726 -5.53,-60.683 l 1.12,0 c 12.15,36.953 39.74,71.152 91.03,66.211 l -2.75,-57.95" /><path
         id="path76"
         style="fill:#073070;fill-opacity:1;fill-rule:nonzero;stroke:none"
         d="m 5544.39,141.289 c -58.47,0 -76.13,22.617 -76.13,83.887 l 0,149.512 -52.44,0 0,45.8 52.44,0 0,87.168 58.46,15.996 0,-103.164 72.3,0 0,-45.8 -71.75,0 0,-131.309 c 0,-40.84 8.28,-51.875 35.89,-51.875 12.15,0 25.38,1.66 35.86,4.414 l 0,-48.555 c -16.01,-3.32 -36.4,-6.074 -54.63,-6.074" /></g></g></svg>