<?xml version="1.0" encoding="utf-8"?>
<!-- Generator: Adobe Illustrator 26.2.1, SVG Export Plug-In . SVG Version: 6.00 Build 0)  -->
<svg version="1.1" id="Ebene_1" xmlns="http://www.w3.org/2000/svg" xmlns:xlink="http://www.w3.org/1999/xlink" x="0px" y="0px"
	 viewBox="0 0 522.1 225.4" style="enable-background:new 0 0 522.1 225.4;" xml:space="preserve">
<style type="text/css">
	.st0{fill:#1D1D1B;}
	.st1{fill:#00ABC4;}
</style>
<path class="st0" d="M136.4,79.6l9.5-9.9l16.6,28.2H180l-23.8-39.1l22-23.1h-18.7L136.4,61V35.6h-14.8v62.1h14.8V79.6z M189.2,71.8
	c-3.8,1.6-9.7,5.8-9.7,13.2c0,6.4,4.5,14,15.1,14c6.8,0,10.6-2.9,14.1-5.5v4.2h13.3c-1.1-1.6-1.3-2.3-1.3-7.2V63.8
	c0-11.9-13.6-13.2-19.3-13.2c-5.4,0-10.8,0.7-15.1,4s-4.6,7-4.8,10.2H195c0.4-1.7,1.1-5.4,7.1-5.4c4.8,0,5,3.5,5.2,5.6v2.5
	C201.6,68.6,192.9,70.2,189.2,71.8z M202.5,87.6c-1.4,0.9-3,1.4-4.7,1.5c-2.7,0.1-5-2-5.1-4.7c0-3.5,3.5-4.8,5.8-5.7l8.7-2.9
	C207.2,80.5,207,84.8,202.5,87.6L202.5,87.6z M239.8,71.9c0-5.8,1.9-6.8,8.4-7.9l4.5-0.7v-12c-7,0.7-10.3,2.7-13.3,5.3v-4.8h-13.2
	v46h13.6L239.8,71.9z M270.7,35.6h-13.6v62.1h13.5L270.7,35.6z M298,99.4c6.4,0.1,12.6-2.2,17.3-6.5c2.1-2.1,4-4.4,5.5-6.9
	l-10.2-5.2c-1.7,3.3-4.2,8.1-11.6,8.1s-10.6-5.7-10.5-11.4h32.8c-0.2-5.2-0.5-14.2-6.5-20.6s-13.8-6.6-16.5-6.6
	c-18.1,0-23.6,14.2-23.6,25.3C274.8,90.7,284.4,99.4,298,99.4z M291.4,63c1.8-1.9,4.3-3,6.9-3c2.4,0,4.8,0.9,6.6,2.5
	c1.9,2,2.3,4.6,2.5,6.5h-18.7C289,66.8,290,64.7,291.4,63z M174.8,132.2c0.1-5-1.7-10-4.9-13.8c-5.7-6.2-13.8-6.2-20.3-6.3h-28v62.1
	h15.6V152h9.8l12.3,22.2h17.2L162,149.3C166.3,147.8,174.8,144.7,174.8,132.2z M150,140.5h-12.9v-16.8h13.2c3.3,0.1,9,0.4,9,8.3
	C159.3,140.2,152.2,140.4,150,140.5z M215.8,133.3c-5.9-6.3-13.8-6.6-16.6-6.6c-18.1,0-23.6,14.3-23.6,25.3c0,15,9.6,23.8,23.2,23.8
	c6.4,0.1,12.6-2.2,17.3-6.5c2.1-2.1,4-4.4,5.5-6.9l-10.2-5.2c-1.7,3.2-4.2,8.1-11.6,8.1s-10.6-5.7-10.5-11.4h32.8
	C222.1,148.7,221.8,139.8,215.8,133.3L215.8,133.3z M189.6,145.5c0.3-2.2,1.3-4.3,2.7-6.1c1.8-1.9,4.3-3,6.9-3
	c2.4,0,4.8,0.9,6.6,2.6c1.9,2,2.3,4.6,2.6,6.5L189.6,145.5z M255.9,161.8c-1.7,2-4.2,3.2-6.9,3.2c-7.2,0-10.2-7.6-10.2-13.7
	c0-5.6,2.5-13.9,9.8-13.9c1.8,0,3.6,0.6,5.1,1.6c1.7,1.2,3.1,2.9,3.9,4.8l10-5.7c-4-7-11.6-11.2-19.6-11
	c-15.3,0-23.1,11.3-23.1,24.6c0,18.7,14,24,22.8,24c4.7,0,9.3-1.4,13.2-4.1c3-2.2,5.4-5,7.2-8.2l-10.2-5.3
	C257.5,159.4,256.8,160.7,255.9,161.8L255.9,161.8z M296.4,128.2l-7.6,32.9l-7.6-32.9h-14.4l13.7,44.3c0.3,1.1,0.5,2.2,0.6,3.3
	c0,3.2-3.4,3.2-5.6,3.3h-4.8v10.7h9.8c3.5-0.1,6.6-0.3,9.8-3.7c2.3-2.6,3.2-5.4,4.3-8.4l16.2-49.6L296.4,128.2z M339.6,161.8
	c-1.7,2-4.2,3.2-6.9,3.2c-7.2,0-10.2-7.6-10.2-13.7c0-5.6,2.5-13.9,9.8-13.9c1.8,0,3.6,0.6,5.1,1.6c1.7,1.2,3.1,2.9,3.9,4.8l10-5.7
	c-4-7-11.6-11.2-19.6-11c-15.3,0-23.1,11.3-23.1,24.6c0,18.7,14,24,22.8,24c4.7,0,9.3-1.4,13.2-4.1c3-2.2,5.4-5,7.2-8.2l-10.2-5.3
	C341.2,159.4,340.6,160.7,339.6,161.8L339.6,161.8z M354.2,174.2h13.5V112h-13.6L354.2,174.2z M375.2,122.4h13.4V112h-13.4
	L375.2,122.4z M375.2,174.2h13.4v-46h-13.4L375.2,174.2z M431.4,128.9c-2.5-1.3-5.3-1.9-8.2-1.8c-2.9,0-5.7,0.6-8.4,1.7
	c-1.8,0.8-3.3,2.1-4.6,3.6v-4.1h-13.7v45.8h13.5v-24.8c0-5.7,0-11.4,7.1-11.4c2.6,0,5,1.1,6.1,3.5c0.5,1.2,0.6,2.7,0.6,6.9v25.9
	h13.5v-31.4C437.4,135.6,436.2,131.5,431.4,128.9L431.4,128.9z M474.1,128.1v4.3c-3.2-3.4-7.7-5.2-12.3-5
	c-15.2,0-19.5,13.3-19.5,22.5c0,7.9,2.4,15,8.5,19c3.1,2,6.8,3.1,10.5,3c4.4,0.1,8.6-1.3,12.1-3.9v4.9c0,3.8,0,8.6-8.2,8.6
	c-1.5,0.1-3-0.2-4.3-0.9c-3.6-1.7-3.8-4.6-4-6.6h-14c0,2.5-0.1,7.1,3.5,10.7c2.5,2.6,8.4,5.7,17.6,5.7c4.1,0,11-0.7,15.7-3.5
	c6.7-3.9,6.9-9.8,7-14.8v-44.2H474.1z M464.8,161.8c-8.4,0-8.6-8-8.6-11.9c0-6.5,1.6-12.1,8-12.3c3.9-0.2,6.3,1.7,7.4,3.3
	c1.5,2.2,1.7,6.8,1.7,9C473.2,156.4,471.7,161.8,464.8,161.8L464.8,161.8z"/>
<path class="st1" d="M49.2,63.4c1-10.8,9.5-19.4,20.3-20.5l6.2-6.2l-6.5-6.5c-17.7,1.3-31.7,15.6-32.7,33.4l6.5-6.4L49.2,63.4z"/>
<path class="st0" d="M80.5,36.7l-6.2,6.2c12.5,1.3,21.6,12.5,20.4,25c-1.3,12.5-12.5,21.6-25,20.4C59,87.1,50.5,78.8,49.3,68.1
	L43,61.8l-6.4,6.4c1.5,19.5,18.5,34.1,38.1,32.7s34.1-18.5,32.7-38.1C106,45.1,91.7,31.2,74,30.1L80.5,36.7z"/>
</svg>
